<?xml version="1.0" encoding="utf-8" standalone="no"?>
<!DOCTYPE svg PUBLIC "-//W3C//DTD SVG 1.1//EN"
  "http://www.w3.org/Graphics/SVG/1.1/DTD/svg11.dtd">
<svg xmlns:xlink="http://www.w3.org/1999/xlink" width="432pt" height="432pt" viewBox="0 0 432 432" xmlns="http://www.w3.org/2000/svg" version="1.1">
 <metadata>
  <rdf:RDF xmlns:dc="http://purl.org/dc/elements/1.1/" xmlns:cc="http://creativecommons.org/ns#" xmlns:rdf="http://www.w3.org/1999/02/22-rdf-syntax-ns#">
   <cc:Work>
    <dc:type rdf:resource="http://purl.org/dc/dcmitype/StillImage"/>
    <dc:date>2022-05-15T18:21:53.687203</dc:date>
    <dc:format>image/svg+xml</dc:format>
    <dc:creator>
     <cc:Agent>
      <dc:title>Matplotlib v3.5.0, https://matplotlib.org/</dc:title>
     </cc:Agent>
    </dc:creator>
   </cc:Work>
  </rdf:RDF>
 </metadata>
 <defs>
  <style type="text/css">*{stroke-linejoin: round; stroke-linecap: butt}</style>
 </defs>
 <g id="figure_1">
  <g id="patch_1">
   <path d="M 0 432 
L 432 432 
L 432 0 
L 0 0 
z
" style="fill: #ffffff"/>
  </g>
  <g id="axes_1">
   <g id="patch_2">
    <path d="M 31.8 405.2 
L 354.445714 405.2 
L 354.445714 78.411429 
L 31.8 78.411429 
z
" style="fill: #ffffff"/>
   </g>
   <g id="matplotlib.axis_1">
    <g id="xtick_1">
     <g id="line2d_1">
      <defs>
       <path id="ma60ebe7fde" d="M 0 0 
L 0 3.5 
" style="stroke: #262626; stroke-width: 0.8"/>
      </defs>
      <g>
       <use xlink:href="#ma60ebe7fde" x="67.589274" y="405.2" style="fill: #262626; stroke: #262626; stroke-width: 0.8"/>
      </g>
     </g>
     <g id="text_1">
      <!-- $\mathdefault{10^{1}}$ -->
      <g style="fill: #262626" transform="translate(59.739274 422.5125)scale(0.1 -0.1)">
       <defs>
        <path id="ArialMT-31" d="M 2384 0 
L 1822 0 
L 1822 3584 
Q 1619 3391 1289 3197 
Q 959 3003 697 2906 
L 697 3450 
Q 1169 3672 1522 3987 
Q 1875 4303 2022 4600 
L 2384 4600 
L 2384 0 
z
" transform="scale(0.015625)"/>
        <path id="ArialMT-30" d="M 266 2259 
Q 266 3072 433 3567 
Q 600 4063 929 4331 
Q 1259 4600 1759 4600 
Q 2128 4600 2406 4451 
Q 2684 4303 2865 4023 
Q 3047 3744 3150 3342 
Q 3253 2941 3253 2259 
Q 3253 1453 3087 958 
Q 2922 463 2592 192 
Q 2263 -78 1759 -78 
Q 1097 -78 719 397 
Q 266 969 266 2259 
z
M 844 2259 
Q 844 1131 1108 757 
Q 1372 384 1759 384 
Q 2147 384 2411 759 
Q 2675 1134 2675 2259 
Q 2675 3391 2411 3762 
Q 2147 4134 1753 4134 
Q 1366 4134 1134 3806 
Q 844 3388 844 2259 
z
" transform="scale(0.015625)"/>
       </defs>
       <use xlink:href="#ArialMT-31" transform="translate(0 0.99375)"/>
       <use xlink:href="#ArialMT-30" transform="translate(55.615234 0.99375)"/>
       <use xlink:href="#ArialMT-31" transform="translate(112.972813 70.6875)scale(0.7)"/>
      </g>
     </g>
    </g>
    <g id="xtick_2">
     <g id="line2d_2">
      <g>
       <use xlink:href="#ma60ebe7fde" x="228.912131" y="405.2" style="fill: #262626; stroke: #262626; stroke-width: 0.8"/>
      </g>
     </g>
     <g id="text_2">
      <!-- $\mathdefault{10^{2}}$ -->
      <g style="fill: #262626" transform="translate(221.062131 422.5125)scale(0.1 -0.1)">
       <defs>
        <path id="ArialMT-32" d="M 3222 541 
L 3222 0 
L 194 0 
Q 188 203 259 391 
Q 375 700 629 1000 
Q 884 1300 1366 1694 
Q 2113 2306 2375 2664 
Q 2638 3022 2638 3341 
Q 2638 3675 2398 3904 
Q 2159 4134 1775 4134 
Q 1369 4134 1125 3890 
Q 881 3647 878 3216 
L 300 3275 
Q 359 3922 746 4261 
Q 1134 4600 1788 4600 
Q 2447 4600 2831 4234 
Q 3216 3869 3216 3328 
Q 3216 3053 3103 2787 
Q 2991 2522 2730 2228 
Q 2469 1934 1863 1422 
Q 1356 997 1212 845 
Q 1069 694 975 541 
L 3222 541 
z
" transform="scale(0.015625)"/>
       </defs>
       <use xlink:href="#ArialMT-31" transform="translate(0 0.99375)"/>
       <use xlink:href="#ArialMT-30" transform="translate(55.615234 0.99375)"/>
       <use xlink:href="#ArialMT-32" transform="translate(112.972813 70.6875)scale(0.7)"/>
      </g>
     </g>
    </g>
    <g id="xtick_3">
     <g id="line2d_3">
      <defs>
       <path id="m07261b7167" d="M 0 0 
L 0 2 
" style="stroke: #262626; stroke-width: 0.6"/>
      </defs>
      <g>
       <use xlink:href="#m07261b7167" x="31.8" y="405.2" style="fill: #262626; stroke: #262626; stroke-width: 0.6"/>
      </g>
     </g>
    </g>
    <g id="xtick_4">
     <g id="line2d_4">
      <g>
       <use xlink:href="#m07261b7167" x="42.600047" y="405.2" style="fill: #262626; stroke: #262626; stroke-width: 0.6"/>
      </g>
     </g>
    </g>
    <g id="xtick_5">
     <g id="line2d_5">
      <g>
       <use xlink:href="#m07261b7167" x="51.955474" y="405.2" style="fill: #262626; stroke: #262626; stroke-width: 0.6"/>
      </g>
     </g>
    </g>
    <g id="xtick_6">
     <g id="line2d_6">
      <g>
       <use xlink:href="#m07261b7167" x="60.207545" y="405.2" style="fill: #262626; stroke: #262626; stroke-width: 0.6"/>
      </g>
     </g>
    </g>
    <g id="xtick_7">
     <g id="line2d_7">
      <g>
       <use xlink:href="#m07261b7167" x="116.152293" y="405.2" style="fill: #262626; stroke: #262626; stroke-width: 0.6"/>
      </g>
     </g>
    </g>
    <g id="xtick_8">
     <g id="line2d_8">
      <g>
       <use xlink:href="#m07261b7167" x="144.559838" y="405.2" style="fill: #262626; stroke: #262626; stroke-width: 0.6"/>
      </g>
     </g>
    </g>
    <g id="xtick_9">
     <g id="line2d_9">
      <g>
       <use xlink:href="#m07261b7167" x="164.715312" y="405.2" style="fill: #262626; stroke: #262626; stroke-width: 0.6"/>
      </g>
     </g>
    </g>
    <g id="xtick_10">
     <g id="line2d_10">
      <g>
       <use xlink:href="#m07261b7167" x="180.349112" y="405.2" style="fill: #262626; stroke: #262626; stroke-width: 0.6"/>
      </g>
     </g>
    </g>
    <g id="xtick_11">
     <g id="line2d_11">
      <g>
       <use xlink:href="#m07261b7167" x="193.122857" y="405.2" style="fill: #262626; stroke: #262626; stroke-width: 0.6"/>
      </g>
     </g>
    </g>
    <g id="xtick_12">
     <g id="line2d_12">
      <g>
       <use xlink:href="#m07261b7167" x="203.922905" y="405.2" style="fill: #262626; stroke: #262626; stroke-width: 0.6"/>
      </g>
     </g>
    </g>
    <g id="xtick_13">
     <g id="line2d_13">
      <g>
       <use xlink:href="#m07261b7167" x="213.278331" y="405.2" style="fill: #262626; stroke: #262626; stroke-width: 0.6"/>
      </g>
     </g>
    </g>
    <g id="xtick_14">
     <g id="line2d_14">
      <g>
       <use xlink:href="#m07261b7167" x="221.530402" y="405.2" style="fill: #262626; stroke: #262626; stroke-width: 0.6"/>
      </g>
     </g>
    </g>
    <g id="xtick_15">
     <g id="line2d_15">
      <g>
       <use xlink:href="#m07261b7167" x="277.47515" y="405.2" style="fill: #262626; stroke: #262626; stroke-width: 0.6"/>
      </g>
     </g>
    </g>
    <g id="xtick_16">
     <g id="line2d_16">
      <g>
       <use xlink:href="#m07261b7167" x="305.882695" y="405.2" style="fill: #262626; stroke: #262626; stroke-width: 0.6"/>
      </g>
     </g>
    </g>
    <g id="xtick_17">
     <g id="line2d_17">
      <g>
       <use xlink:href="#m07261b7167" x="326.038169" y="405.2" style="fill: #262626; stroke: #262626; stroke-width: 0.6"/>
      </g>
     </g>
    </g>
    <g id="xtick_18">
     <g id="line2d_18">
      <g>
       <use xlink:href="#m07261b7167" x="341.671969" y="405.2" style="fill: #262626; stroke: #262626; stroke-width: 0.6"/>
      </g>
     </g>
    </g>
    <g id="xtick_19">
     <g id="line2d_19">
      <g>
       <use xlink:href="#m07261b7167" x="354.445714" y="405.2" style="fill: #262626; stroke: #262626; stroke-width: 0.6"/>
      </g>
     </g>
    </g>
    <g id="text_3">
     <!-- number of residues -->
     <g style="fill: #262626" transform="translate(150.325982 435.657812)scale(0.1 -0.1)">
      <defs>
       <path id="ArialMT-6e" d="M 422 0 
L 422 3319 
L 928 3319 
L 928 2847 
Q 1294 3394 1984 3394 
Q 2284 3394 2536 3286 
Q 2788 3178 2913 3003 
Q 3038 2828 3088 2588 
Q 3119 2431 3119 2041 
L 3119 0 
L 2556 0 
L 2556 2019 
Q 2556 2363 2490 2533 
Q 2425 2703 2258 2804 
Q 2091 2906 1866 2906 
Q 1506 2906 1245 2678 
Q 984 2450 984 1813 
L 984 0 
L 422 0 
z
" transform="scale(0.015625)"/>
       <path id="ArialMT-75" d="M 2597 0 
L 2597 488 
Q 2209 -75 1544 -75 
Q 1250 -75 995 37 
Q 741 150 617 320 
Q 494 491 444 738 
Q 409 903 409 1263 
L 409 3319 
L 972 3319 
L 972 1478 
Q 972 1038 1006 884 
Q 1059 663 1231 536 
Q 1403 409 1656 409 
Q 1909 409 2131 539 
Q 2353 669 2445 892 
Q 2538 1116 2538 1541 
L 2538 3319 
L 3100 3319 
L 3100 0 
L 2597 0 
z
" transform="scale(0.015625)"/>
       <path id="ArialMT-6d" d="M 422 0 
L 422 3319 
L 925 3319 
L 925 2853 
Q 1081 3097 1340 3245 
Q 1600 3394 1931 3394 
Q 2300 3394 2536 3241 
Q 2772 3088 2869 2813 
Q 3263 3394 3894 3394 
Q 4388 3394 4653 3120 
Q 4919 2847 4919 2278 
L 4919 0 
L 4359 0 
L 4359 2091 
Q 4359 2428 4304 2576 
Q 4250 2725 4106 2815 
Q 3963 2906 3769 2906 
Q 3419 2906 3187 2673 
Q 2956 2441 2956 1928 
L 2956 0 
L 2394 0 
L 2394 2156 
Q 2394 2531 2256 2718 
Q 2119 2906 1806 2906 
Q 1569 2906 1367 2781 
Q 1166 2656 1075 2415 
Q 984 2175 984 1722 
L 984 0 
L 422 0 
z
" transform="scale(0.015625)"/>
       <path id="ArialMT-62" d="M 941 0 
L 419 0 
L 419 4581 
L 981 4581 
L 981 2947 
Q 1338 3394 1891 3394 
Q 2197 3394 2470 3270 
Q 2744 3147 2920 2923 
Q 3097 2700 3197 2384 
Q 3297 2069 3297 1709 
Q 3297 856 2875 390 
Q 2453 -75 1863 -75 
Q 1275 -75 941 416 
L 941 0 
z
M 934 1684 
Q 934 1088 1097 822 
Q 1363 388 1816 388 
Q 2184 388 2453 708 
Q 2722 1028 2722 1663 
Q 2722 2313 2464 2622 
Q 2206 2931 1841 2931 
Q 1472 2931 1203 2611 
Q 934 2291 934 1684 
z
" transform="scale(0.015625)"/>
       <path id="ArialMT-65" d="M 2694 1069 
L 3275 997 
Q 3138 488 2766 206 
Q 2394 -75 1816 -75 
Q 1088 -75 661 373 
Q 234 822 234 1631 
Q 234 2469 665 2931 
Q 1097 3394 1784 3394 
Q 2450 3394 2872 2941 
Q 3294 2488 3294 1666 
Q 3294 1616 3291 1516 
L 816 1516 
Q 847 969 1125 678 
Q 1403 388 1819 388 
Q 2128 388 2347 550 
Q 2566 713 2694 1069 
z
M 847 1978 
L 2700 1978 
Q 2663 2397 2488 2606 
Q 2219 2931 1791 2931 
Q 1403 2931 1139 2672 
Q 875 2413 847 1978 
z
" transform="scale(0.015625)"/>
       <path id="ArialMT-72" d="M 416 0 
L 416 3319 
L 922 3319 
L 922 2816 
Q 1116 3169 1280 3281 
Q 1444 3394 1641 3394 
Q 1925 3394 2219 3213 
L 2025 2691 
Q 1819 2813 1613 2813 
Q 1428 2813 1281 2702 
Q 1134 2591 1072 2394 
Q 978 2094 978 1738 
L 978 0 
L 416 0 
z
" transform="scale(0.015625)"/>
       <path id="ArialMT-20" transform="scale(0.015625)"/>
       <path id="ArialMT-6f" d="M 213 1659 
Q 213 2581 725 3025 
Q 1153 3394 1769 3394 
Q 2453 3394 2887 2945 
Q 3322 2497 3322 1706 
Q 3322 1066 3130 698 
Q 2938 331 2570 128 
Q 2203 -75 1769 -75 
Q 1072 -75 642 372 
Q 213 819 213 1659 
z
M 791 1659 
Q 791 1022 1069 705 
Q 1347 388 1769 388 
Q 2188 388 2466 706 
Q 2744 1025 2744 1678 
Q 2744 2294 2464 2611 
Q 2184 2928 1769 2928 
Q 1347 2928 1069 2612 
Q 791 2297 791 1659 
z
" transform="scale(0.015625)"/>
       <path id="ArialMT-66" d="M 556 0 
L 556 2881 
L 59 2881 
L 59 3319 
L 556 3319 
L 556 3672 
Q 556 4006 616 4169 
Q 697 4388 901 4523 
Q 1106 4659 1475 4659 
Q 1713 4659 2000 4603 
L 1916 4113 
Q 1741 4144 1584 4144 
Q 1328 4144 1222 4034 
Q 1116 3925 1116 3625 
L 1116 3319 
L 1763 3319 
L 1763 2881 
L 1116 2881 
L 1116 0 
L 556 0 
z
" transform="scale(0.015625)"/>
       <path id="ArialMT-73" d="M 197 991 
L 753 1078 
Q 800 744 1014 566 
Q 1228 388 1613 388 
Q 2000 388 2187 545 
Q 2375 703 2375 916 
Q 2375 1106 2209 1216 
Q 2094 1291 1634 1406 
Q 1016 1563 777 1677 
Q 538 1791 414 1992 
Q 291 2194 291 2438 
Q 291 2659 392 2848 
Q 494 3038 669 3163 
Q 800 3259 1026 3326 
Q 1253 3394 1513 3394 
Q 1903 3394 2198 3281 
Q 2494 3169 2634 2976 
Q 2775 2784 2828 2463 
L 2278 2388 
Q 2241 2644 2061 2787 
Q 1881 2931 1553 2931 
Q 1166 2931 1000 2803 
Q 834 2675 834 2503 
Q 834 2394 903 2306 
Q 972 2216 1119 2156 
Q 1203 2125 1616 2013 
Q 2213 1853 2448 1751 
Q 2684 1650 2818 1456 
Q 2953 1263 2953 975 
Q 2953 694 2789 445 
Q 2625 197 2315 61 
Q 2006 -75 1616 -75 
Q 969 -75 630 194 
Q 291 463 197 991 
z
" transform="scale(0.015625)"/>
       <path id="ArialMT-69" d="M 425 3934 
L 425 4581 
L 988 4581 
L 988 3934 
L 425 3934 
z
M 425 0 
L 425 3319 
L 988 3319 
L 988 0 
L 425 0 
z
" transform="scale(0.015625)"/>
       <path id="ArialMT-64" d="M 2575 0 
L 2575 419 
Q 2259 -75 1647 -75 
Q 1250 -75 917 144 
Q 584 363 401 755 
Q 219 1147 219 1656 
Q 219 2153 384 2558 
Q 550 2963 881 3178 
Q 1213 3394 1622 3394 
Q 1922 3394 2156 3267 
Q 2391 3141 2538 2938 
L 2538 4581 
L 3097 4581 
L 3097 0 
L 2575 0 
z
M 797 1656 
Q 797 1019 1065 703 
Q 1334 388 1700 388 
Q 2069 388 2326 689 
Q 2584 991 2584 1609 
Q 2584 2291 2321 2609 
Q 2059 2928 1675 2928 
Q 1300 2928 1048 2622 
Q 797 2316 797 1656 
z
" transform="scale(0.015625)"/>
      </defs>
      <use xlink:href="#ArialMT-6e"/>
      <use xlink:href="#ArialMT-75" x="55.615234"/>
      <use xlink:href="#ArialMT-6d" x="111.230469"/>
      <use xlink:href="#ArialMT-62" x="194.53125"/>
      <use xlink:href="#ArialMT-65" x="250.146484"/>
      <use xlink:href="#ArialMT-72" x="305.761719"/>
      <use xlink:href="#ArialMT-20" x="339.0625"/>
      <use xlink:href="#ArialMT-6f" x="366.845703"/>
      <use xlink:href="#ArialMT-66" x="422.460938"/>
      <use xlink:href="#ArialMT-20" x="450.244141"/>
      <use xlink:href="#ArialMT-72" x="478.027344"/>
      <use xlink:href="#ArialMT-65" x="511.328125"/>
      <use xlink:href="#ArialMT-73" x="566.943359"/>
      <use xlink:href="#ArialMT-69" x="616.943359"/>
      <use xlink:href="#ArialMT-64" x="639.160156"/>
      <use xlink:href="#ArialMT-75" x="694.775391"/>
      <use xlink:href="#ArialMT-65" x="750.390625"/>
      <use xlink:href="#ArialMT-73" x="806.005859"/>
     </g>
    </g>
   </g>
   <g id="matplotlib.axis_2">
    <g id="ytick_1">
     <g id="text_4">
      <!-- 0 -->
      <g style="fill: #262626" transform="translate(19.239063 408.778906)scale(0.1 -0.1)">
       <use xlink:href="#ArialMT-30"/>
      </g>
     </g>
    </g>
    <g id="ytick_2">
     <g id="text_5">
      <!-- 20 -->
      <g style="fill: #262626" transform="translate(13.678125 343.421192)scale(0.1 -0.1)">
       <use xlink:href="#ArialMT-32"/>
       <use xlink:href="#ArialMT-30" x="55.615234"/>
      </g>
     </g>
    </g>
    <g id="ytick_3">
     <g id="text_6">
      <!-- 40 -->
      <g style="fill: #262626" transform="translate(13.678125 278.063478)scale(0.1 -0.1)">
       <defs>
        <path id="ArialMT-34" d="M 2069 0 
L 2069 1097 
L 81 1097 
L 81 1613 
L 2172 4581 
L 2631 4581 
L 2631 1613 
L 3250 1613 
L 3250 1097 
L 2631 1097 
L 2631 0 
L 2069 0 
z
M 2069 1613 
L 2069 3678 
L 634 1613 
L 2069 1613 
z
" transform="scale(0.015625)"/>
       </defs>
       <use xlink:href="#ArialMT-34"/>
       <use xlink:href="#ArialMT-30" x="55.615234"/>
      </g>
     </g>
    </g>
    <g id="ytick_4">
     <g id="text_7">
      <!-- 60 -->
      <g style="fill: #262626" transform="translate(13.678125 212.705763)scale(0.1 -0.1)">
       <defs>
        <path id="ArialMT-36" d="M 3184 3459 
L 2625 3416 
Q 2550 3747 2413 3897 
Q 2184 4138 1850 4138 
Q 1581 4138 1378 3988 
Q 1113 3794 959 3422 
Q 806 3050 800 2363 
Q 1003 2672 1297 2822 
Q 1591 2972 1913 2972 
Q 2475 2972 2870 2558 
Q 3266 2144 3266 1488 
Q 3266 1056 3080 686 
Q 2894 316 2569 119 
Q 2244 -78 1831 -78 
Q 1128 -78 684 439 
Q 241 956 241 2144 
Q 241 3472 731 4075 
Q 1159 4600 1884 4600 
Q 2425 4600 2770 4297 
Q 3116 3994 3184 3459 
z
M 888 1484 
Q 888 1194 1011 928 
Q 1134 663 1356 523 
Q 1578 384 1822 384 
Q 2178 384 2434 671 
Q 2691 959 2691 1453 
Q 2691 1928 2437 2201 
Q 2184 2475 1800 2475 
Q 1419 2475 1153 2201 
Q 888 1928 888 1484 
z
" transform="scale(0.015625)"/>
       </defs>
       <use xlink:href="#ArialMT-36"/>
       <use xlink:href="#ArialMT-30" x="55.615234"/>
      </g>
     </g>
    </g>
    <g id="ytick_5">
     <g id="text_8">
      <!-- 80 -->
      <g style="fill: #262626" transform="translate(13.678125 147.348049)scale(0.1 -0.1)">
       <defs>
        <path id="ArialMT-38" d="M 1131 2484 
Q 781 2613 612 2850 
Q 444 3088 444 3419 
Q 444 3919 803 4259 
Q 1163 4600 1759 4600 
Q 2359 4600 2725 4251 
Q 3091 3903 3091 3403 
Q 3091 3084 2923 2848 
Q 2756 2613 2416 2484 
Q 2838 2347 3058 2040 
Q 3278 1734 3278 1309 
Q 3278 722 2862 322 
Q 2447 -78 1769 -78 
Q 1091 -78 675 323 
Q 259 725 259 1325 
Q 259 1772 486 2073 
Q 713 2375 1131 2484 
z
M 1019 3438 
Q 1019 3113 1228 2906 
Q 1438 2700 1772 2700 
Q 2097 2700 2305 2904 
Q 2513 3109 2513 3406 
Q 2513 3716 2298 3927 
Q 2084 4138 1766 4138 
Q 1444 4138 1231 3931 
Q 1019 3725 1019 3438 
z
M 838 1322 
Q 838 1081 952 856 
Q 1066 631 1291 507 
Q 1516 384 1775 384 
Q 2178 384 2440 643 
Q 2703 903 2703 1303 
Q 2703 1709 2433 1975 
Q 2163 2241 1756 2241 
Q 1359 2241 1098 1978 
Q 838 1716 838 1322 
z
" transform="scale(0.015625)"/>
       </defs>
       <use xlink:href="#ArialMT-38"/>
       <use xlink:href="#ArialMT-30" x="55.615234"/>
      </g>
     </g>
    </g>
    <g id="ytick_6">
     <g id="text_9">
      <!-- 100 -->
      <g style="fill: #262626" transform="translate(8.117188 81.990335)scale(0.1 -0.1)">
       <use xlink:href="#ArialMT-31"/>
       <use xlink:href="#ArialMT-30" x="55.615234"/>
       <use xlink:href="#ArialMT-30" x="111.230469"/>
      </g>
     </g>
    </g>
    <g id="text_10">
     <!-- rmsd (angstroms) -->
     <g style="fill: #262626" transform="translate(2.0125 280.975246)rotate(-90)scale(0.1 -0.1)">
      <defs>
       <path id="ArialMT-28" d="M 1497 -1347 
Q 1031 -759 709 28 
Q 388 816 388 1659 
Q 388 2403 628 3084 
Q 909 3875 1497 4659 
L 1900 4659 
Q 1522 4009 1400 3731 
Q 1209 3300 1100 2831 
Q 966 2247 966 1656 
Q 966 153 1900 -1347 
L 1497 -1347 
z
" transform="scale(0.015625)"/>
       <path id="ArialMT-61" d="M 2588 409 
Q 2275 144 1986 34 
Q 1697 -75 1366 -75 
Q 819 -75 525 192 
Q 231 459 231 875 
Q 231 1119 342 1320 
Q 453 1522 633 1644 
Q 813 1766 1038 1828 
Q 1203 1872 1538 1913 
Q 2219 1994 2541 2106 
Q 2544 2222 2544 2253 
Q 2544 2597 2384 2738 
Q 2169 2928 1744 2928 
Q 1347 2928 1158 2789 
Q 969 2650 878 2297 
L 328 2372 
Q 403 2725 575 2942 
Q 747 3159 1072 3276 
Q 1397 3394 1825 3394 
Q 2250 3394 2515 3294 
Q 2781 3194 2906 3042 
Q 3031 2891 3081 2659 
Q 3109 2516 3109 2141 
L 3109 1391 
Q 3109 606 3145 398 
Q 3181 191 3288 0 
L 2700 0 
Q 2613 175 2588 409 
z
M 2541 1666 
Q 2234 1541 1622 1453 
Q 1275 1403 1131 1340 
Q 988 1278 909 1158 
Q 831 1038 831 891 
Q 831 666 1001 516 
Q 1172 366 1500 366 
Q 1825 366 2078 508 
Q 2331 650 2450 897 
Q 2541 1088 2541 1459 
L 2541 1666 
z
" transform="scale(0.015625)"/>
       <path id="ArialMT-67" d="M 319 -275 
L 866 -356 
Q 900 -609 1056 -725 
Q 1266 -881 1628 -881 
Q 2019 -881 2231 -725 
Q 2444 -569 2519 -288 
Q 2563 -116 2559 434 
Q 2191 0 1641 0 
Q 956 0 581 494 
Q 206 988 206 1678 
Q 206 2153 378 2554 
Q 550 2956 876 3175 
Q 1203 3394 1644 3394 
Q 2231 3394 2613 2919 
L 2613 3319 
L 3131 3319 
L 3131 450 
Q 3131 -325 2973 -648 
Q 2816 -972 2473 -1159 
Q 2131 -1347 1631 -1347 
Q 1038 -1347 672 -1080 
Q 306 -813 319 -275 
z
M 784 1719 
Q 784 1066 1043 766 
Q 1303 466 1694 466 
Q 2081 466 2343 764 
Q 2606 1063 2606 1700 
Q 2606 2309 2336 2618 
Q 2066 2928 1684 2928 
Q 1309 2928 1046 2623 
Q 784 2319 784 1719 
z
" transform="scale(0.015625)"/>
       <path id="ArialMT-74" d="M 1650 503 
L 1731 6 
Q 1494 -44 1306 -44 
Q 1000 -44 831 53 
Q 663 150 594 308 
Q 525 466 525 972 
L 525 2881 
L 113 2881 
L 113 3319 
L 525 3319 
L 525 4141 
L 1084 4478 
L 1084 3319 
L 1650 3319 
L 1650 2881 
L 1084 2881 
L 1084 941 
Q 1084 700 1114 631 
Q 1144 563 1211 522 
Q 1278 481 1403 481 
Q 1497 481 1650 503 
z
" transform="scale(0.015625)"/>
       <path id="ArialMT-29" d="M 791 -1347 
L 388 -1347 
Q 1322 153 1322 1656 
Q 1322 2244 1188 2822 
Q 1081 3291 891 3722 
Q 769 4003 388 4659 
L 791 4659 
Q 1378 3875 1659 3084 
Q 1900 2403 1900 1659 
Q 1900 816 1576 28 
Q 1253 -759 791 -1347 
z
" transform="scale(0.015625)"/>
      </defs>
      <use xlink:href="#ArialMT-72"/>
      <use xlink:href="#ArialMT-6d" x="33.300781"/>
      <use xlink:href="#ArialMT-73" x="116.601562"/>
      <use xlink:href="#ArialMT-64" x="166.601562"/>
      <use xlink:href="#ArialMT-20" x="222.216797"/>
      <use xlink:href="#ArialMT-28" x="250"/>
      <use xlink:href="#ArialMT-61" x="283.300781"/>
      <use xlink:href="#ArialMT-6e" x="338.916016"/>
      <use xlink:href="#ArialMT-67" x="394.53125"/>
      <use xlink:href="#ArialMT-73" x="450.146484"/>
      <use xlink:href="#ArialMT-74" x="500.146484"/>
      <use xlink:href="#ArialMT-72" x="527.929688"/>
      <use xlink:href="#ArialMT-6f" x="561.230469"/>
      <use xlink:href="#ArialMT-6d" x="616.845703"/>
      <use xlink:href="#ArialMT-73" x="700.146484"/>
      <use xlink:href="#ArialMT-29" x="750.146484"/>
     </g>
    </g>
   </g>
   <g id="PathCollection_1">
    <defs>
     <path id="C0_0_f61b83db4c" d="M 0 3 
C 0.795609 3 1.55874 2.683901 2.12132 2.12132 
C 2.683901 1.55874 3 0.795609 3 -0 
C 3 -0.795609 2.683901 -1.55874 2.12132 -2.12132 
C 1.55874 -2.683901 0.795609 -3 0 -3 
C -0.795609 -3 -1.55874 -2.683901 -2.12132 -2.12132 
C -2.683901 -1.55874 -3 -0.795609 -3 0 
C -3 0.795609 -2.683901 1.55874 -2.12132 2.12132 
C -1.55874 2.683901 -0.795609 3 0 3 
z
"/>
    </defs>
    <g clip-path="url(#pa5a8e56ee5)">
     <use xlink:href="#C0_0_f61b83db4c" x="134.53396" y="399.346045" style="fill: #1d6087; fill-opacity: 0.7; stroke: #ffffff; stroke-opacity: 0.7; stroke-width: 0.48"/>
    </g>
    <g clip-path="url(#pa5a8e56ee5)">
     <use xlink:href="#C0_0_f61b83db4c" x="324.801236" y="290.099053" style="fill: #28447b; fill-opacity: 0.7; stroke: #ffffff; stroke-opacity: 0.7; stroke-width: 0.48"/>
    </g>
    <g clip-path="url(#pa5a8e56ee5)">
     <use xlink:href="#C0_0_f61b83db4c" x="266.908253" y="315.236114" style="fill: #21728b; fill-opacity: 0.7; stroke: #ffffff; stroke-opacity: 0.7; stroke-width: 0.48"/>
    </g>
    <g clip-path="url(#pa5a8e56ee5)">
     <use xlink:href="#C0_0_f61b83db4c" x="177.489057" y="353.877565" style="fill: #8ac091; fill-opacity: 0.7; stroke: #ffffff; stroke-opacity: 0.7; stroke-width: 0.48"/>
    </g>
    <g clip-path="url(#pa5a8e56ee5)">
     <use xlink:href="#C0_0_f61b83db4c" x="168.13363" y="390.78143" style="fill: #88bf91; fill-opacity: 0.7; stroke: #ffffff; stroke-opacity: 0.7; stroke-width: 0.48"/>
    </g>
    <g clip-path="url(#pa5a8e56ee5)">
     <use xlink:href="#C0_0_f61b83db4c" x="100.518493" y="398.67331" style="fill: #1c6889; fill-opacity: 0.7; stroke: #ffffff; stroke-opacity: 0.7; stroke-width: 0.48"/>
    </g>
    <g clip-path="url(#pa5a8e56ee5)">
     <use xlink:href="#C0_0_f61b83db4c" x="168.13363" y="390.855003" style="fill: #88bf91; fill-opacity: 0.7; stroke: #ffffff; stroke-opacity: 0.7; stroke-width: 0.48"/>
    </g>
    <g clip-path="url(#pa5a8e56ee5)">
     <use xlink:href="#C0_0_f61b83db4c" x="212.397041" y="395.973843" style="fill: #37888d; fill-opacity: 0.7; stroke: #ffffff; stroke-opacity: 0.7; stroke-width: 0.48"/>
    </g>
    <g clip-path="url(#pa5a8e56ee5)">
     <use xlink:href="#C0_0_f61b83db4c" x="278.862555" y="307.418364" style="fill: #2c3172; fill-opacity: 0.7; stroke: #ffffff; stroke-opacity: 0.7; stroke-width: 0.48"/>
    </g>
    <g clip-path="url(#pa5a8e56ee5)">
     <use xlink:href="#C0_0_f61b83db4c" x="168.13363" y="390.159332" style="fill: #1f5985; fill-opacity: 0.7; stroke: #ffffff; stroke-opacity: 0.7; stroke-width: 0.48"/>
    </g>
    <g clip-path="url(#pa5a8e56ee5)">
     <use xlink:href="#C0_0_f61b83db4c" x="100.518493" y="400.32501" style="fill: #88bf91; fill-opacity: 0.7; stroke: #ffffff; stroke-opacity: 0.7; stroke-width: 0.48"/>
    </g>
    <g clip-path="url(#pa5a8e56ee5)">
     <use xlink:href="#C0_0_f61b83db4c" x="164.715312" y="299.436245" style="fill: #28447b; fill-opacity: 0.7; stroke: #ffffff; stroke-opacity: 0.7; stroke-width: 0.48"/>
    </g>
    <g clip-path="url(#pa5a8e56ee5)">
     <use xlink:href="#C0_0_f61b83db4c" x="116.152293" y="388.307856" style="fill: #37888d; fill-opacity: 0.7; stroke: #ffffff; stroke-opacity: 0.7; stroke-width: 0.48"/>
    </g>
    <g clip-path="url(#pa5a8e56ee5)">
     <use xlink:href="#C0_0_f61b83db4c" x="183.096979" y="394.346052" style="fill: #1d6388; fill-opacity: 0.7; stroke: #ffffff; stroke-opacity: 0.7; stroke-width: 0.48"/>
    </g>
    <g clip-path="url(#pa5a8e56ee5)">
     <use xlink:href="#C0_0_f61b83db4c" x="222.304572" y="315.57906" style="fill: #24778b; fill-opacity: 0.7; stroke: #ffffff; stroke-opacity: 0.7; stroke-width: 0.48"/>
    </g>
    <g clip-path="url(#pa5a8e56ee5)">
     <use xlink:href="#C0_0_f61b83db4c" x="122.829879" y="384.515409" style="fill: #5ca890; fill-opacity: 0.7; stroke: #ffffff; stroke-opacity: 0.7; stroke-width: 0.48"/>
    </g>
    <g clip-path="url(#pa5a8e56ee5)">
     <use xlink:href="#C0_0_f61b83db4c" x="215.857578" y="347.558238" style="fill: #1d6188; fill-opacity: 0.7; stroke: #ffffff; stroke-opacity: 0.7; stroke-width: 0.48"/>
    </g>
    <g clip-path="url(#pa5a8e56ee5)">
     <use xlink:href="#C0_0_f61b83db4c" x="324.622735" y="289.690916" style="fill: #3e8e8e; fill-opacity: 0.7; stroke: #ffffff; stroke-opacity: 0.7; stroke-width: 0.48"/>
    </g>
    <g clip-path="url(#pa5a8e56ee5)">
     <use xlink:href="#C0_0_f61b83db4c" x="171.392898" y="352.368098" style="fill: #28447b; fill-opacity: 0.7; stroke: #ffffff; stroke-opacity: 0.7; stroke-width: 0.48"/>
    </g>
    <g clip-path="url(#pa5a8e56ee5)">
     <use xlink:href="#C0_0_f61b83db4c" x="220.747583" y="396.034582" style="fill: #96c691; fill-opacity: 0.7; stroke: #ffffff; stroke-opacity: 0.7; stroke-width: 0.48"/>
    </g>
    <g clip-path="url(#pa5a8e56ee5)">
     <use xlink:href="#C0_0_f61b83db4c" x="116.152293" y="380.963993" style="fill: #43948f; fill-opacity: 0.7; stroke: #ffffff; stroke-opacity: 0.7; stroke-width: 0.48"/>
    </g>
    <g clip-path="url(#pa5a8e56ee5)">
     <use xlink:href="#C0_0_f61b83db4c" x="265.259668" y="289.876422" style="fill: #1e6e8a; fill-opacity: 0.7; stroke: #ffffff; stroke-opacity: 0.7; stroke-width: 0.48"/>
    </g>
    <g clip-path="url(#pa5a8e56ee5)">
     <use xlink:href="#C0_0_f61b83db4c" x="180.349112" y="382.780138" style="fill: #24778b; fill-opacity: 0.7; stroke: #ffffff; stroke-opacity: 0.7; stroke-width: 0.48"/>
    </g>
    <g clip-path="url(#pa5a8e56ee5)">
     <use xlink:href="#C0_0_f61b83db4c" x="200.854022" y="351.576209" style="fill: #49998f; fill-opacity: 0.7; stroke: #ffffff; stroke-opacity: 0.7; stroke-width: 0.48"/>
    </g>
    <g clip-path="url(#pa5a8e56ee5)">
     <use xlink:href="#C0_0_f61b83db4c" x="183.096979" y="394.281716" style="fill: #20718b; fill-opacity: 0.7; stroke: #ffffff; stroke-opacity: 0.7; stroke-width: 0.48"/>
    </g>
    <g clip-path="url(#pa5a8e56ee5)">
     <use xlink:href="#C0_0_f61b83db4c" x="108.770564" y="399.103878" style="fill: #24778b; fill-opacity: 0.7; stroke: #ffffff; stroke-opacity: 0.7; stroke-width: 0.48"/>
    </g>
    <g clip-path="url(#pa5a8e56ee5)">
     <use xlink:href="#C0_0_f61b83db4c" x="200.854022" y="398.545724" style="fill: #215584; fill-opacity: 0.7; stroke: #ffffff; stroke-opacity: 0.7; stroke-width: 0.48"/>
    </g>
    <g clip-path="url(#pa5a8e56ee5)">
     <use xlink:href="#C0_0_f61b83db4c" x="203.922905" y="319.726727" style="fill: #4b9a8f; fill-opacity: 0.7; stroke: #ffffff; stroke-opacity: 0.7; stroke-width: 0.48"/>
    </g>
    <g clip-path="url(#pa5a8e56ee5)">
     <use xlink:href="#C0_0_f61b83db4c" x="168.13363" y="392.209138" style="fill: #509e90; fill-opacity: 0.7; stroke: #ffffff; stroke-opacity: 0.7; stroke-width: 0.48"/>
    </g>
    <g clip-path="url(#pa5a8e56ee5)">
     <use xlink:href="#C0_0_f61b83db4c" x="220.747583" y="394.023584" style="fill: #80bb91; fill-opacity: 0.7; stroke: #ffffff; stroke-opacity: 0.7; stroke-width: 0.48"/>
    </g>
    <g clip-path="url(#pa5a8e56ee5)">
     <use xlink:href="#C0_0_f61b83db4c" x="195.420165" y="396.368858" style="fill: #43948f; fill-opacity: 0.7; stroke: #ffffff; stroke-opacity: 0.7; stroke-width: 0.48"/>
    </g>
    <g clip-path="url(#pa5a8e56ee5)">
     <use xlink:href="#C0_0_f61b83db4c" x="309.078242" y="291.583329" style="fill: #31828d; fill-opacity: 0.7; stroke: #ffffff; stroke-opacity: 0.7; stroke-width: 0.48"/>
    </g>
    <g clip-path="url(#pa5a8e56ee5)">
     <use xlink:href="#C0_0_f61b83db4c" x="234.304147" y="328.044743" style="fill: #27477d; fill-opacity: 0.7; stroke: #ffffff; stroke-opacity: 0.7; stroke-width: 0.48"/>
    </g>
    <g clip-path="url(#pa5a8e56ee5)">
     <use xlink:href="#C0_0_f61b83db4c" x="224.57704" y="383.413801" style="fill: #1c6889; fill-opacity: 0.7; stroke: #ffffff; stroke-opacity: 0.7; stroke-width: 0.48"/>
    </g>
    <g clip-path="url(#pa5a8e56ee5)">
     <use xlink:href="#C0_0_f61b83db4c" x="274.615095" y="317.555144" style="fill: #32848d; fill-opacity: 0.7; stroke: #ffffff; stroke-opacity: 0.7; stroke-width: 0.48"/>
    </g>
    <g clip-path="url(#pa5a8e56ee5)">
     <use xlink:href="#C0_0_f61b83db4c" x="215.008336" y="395.21721" style="fill: #1c6488; fill-opacity: 0.7; stroke: #ffffff; stroke-opacity: 0.7; stroke-width: 0.48"/>
    </g>
    <g clip-path="url(#pa5a8e56ee5)">
     <use xlink:href="#C0_0_f61b83db4c" x="169.782215" y="380.521365" style="fill: #27798c; fill-opacity: 0.7; stroke: #ffffff; stroke-opacity: 0.7; stroke-width: 0.48"/>
    </g>
    <g clip-path="url(#pa5a8e56ee5)">
     <use xlink:href="#C0_0_f61b83db4c" x="134.53396" y="400.389612" style="fill: #47978f; fill-opacity: 0.7; stroke: #ffffff; stroke-opacity: 0.7; stroke-width: 0.48"/>
    </g>
    <g clip-path="url(#pa5a8e56ee5)">
     <use xlink:href="#C0_0_f61b83db4c" x="177.489057" y="331.749281" style="fill: #1c6488; fill-opacity: 0.7; stroke: #ffffff; stroke-opacity: 0.7; stroke-width: 0.48"/>
    </g>
    <g clip-path="url(#pa5a8e56ee5)">
     <use xlink:href="#C0_0_f61b83db4c" x="219.955917" y="321.978665" style="fill: #7bb991; fill-opacity: 0.7; stroke: #ffffff; stroke-opacity: 0.7; stroke-width: 0.48"/>
    </g>
    <g clip-path="url(#pa5a8e56ee5)">
     <use xlink:href="#C0_0_f61b83db4c" x="171.392898" y="382.000767" style="fill: #509e90; fill-opacity: 0.7; stroke: #ffffff; stroke-opacity: 0.7; stroke-width: 0.48"/>
    </g>
    <g clip-path="url(#pa5a8e56ee5)">
     <use xlink:href="#C0_0_f61b83db4c" x="212.397041" y="395.852415" style="fill: #a5cd90; fill-opacity: 0.7; stroke: #ffffff; stroke-opacity: 0.7; stroke-width: 0.48"/>
    </g>
    <g clip-path="url(#pa5a8e56ee5)">
     <use xlink:href="#C0_0_f61b83db4c" x="139.726085" y="394.252288" style="fill: #37888d; fill-opacity: 0.7; stroke: #ffffff; stroke-opacity: 0.7; stroke-width: 0.48"/>
    </g>
    <g clip-path="url(#pa5a8e56ee5)">
     <use xlink:href="#C0_0_f61b83db4c" x="168.13363" y="391.094087" style="fill: #23758b; fill-opacity: 0.7; stroke: #ffffff; stroke-opacity: 0.7; stroke-width: 0.48"/>
    </g>
    <g clip-path="url(#pa5a8e56ee5)">
     <use xlink:href="#C0_0_f61b83db4c" x="212.397041" y="395.680289" style="fill: #88bf91; fill-opacity: 0.7; stroke: #ffffff; stroke-opacity: 0.7; stroke-width: 0.48"/>
    </g>
    <g clip-path="url(#pa5a8e56ee5)">
     <use xlink:href="#C0_0_f61b83db4c" x="278.862555" y="314.713115" style="fill: #37888d; fill-opacity: 0.7; stroke: #ffffff; stroke-opacity: 0.7; stroke-width: 0.48"/>
    </g>
    <g clip-path="url(#pa5a8e56ee5)">
     <use xlink:href="#C0_0_f61b83db4c" x="224.57704" y="392.198419" style="fill: #1d5f87; fill-opacity: 0.7; stroke: #ffffff; stroke-opacity: 0.7; stroke-width: 0.48"/>
    </g>
    <g clip-path="url(#pa5a8e56ee5)">
     <use xlink:href="#C0_0_f61b83db4c" x="183.096979" y="394.194133" style="fill: #3f8f8e; fill-opacity: 0.7; stroke: #ffffff; stroke-opacity: 0.7; stroke-width: 0.48"/>
    </g>
    <g clip-path="url(#pa5a8e56ee5)">
     <use xlink:href="#C0_0_f61b83db4c" x="225.31844" y="324.356429" style="fill: #1d6a8a; fill-opacity: 0.7; stroke: #ffffff; stroke-opacity: 0.7; stroke-width: 0.48"/>
    </g>
    <g clip-path="url(#pa5a8e56ee5)">
     <use xlink:href="#C0_0_f61b83db4c" x="260.067543" y="277.698529" style="fill: #57a490; fill-opacity: 0.7; stroke: #ffffff; stroke-opacity: 0.7; stroke-width: 0.48"/>
    </g>
    <g clip-path="url(#pa5a8e56ee5)">
     <use xlink:href="#C0_0_f61b83db4c" x="205.896602" y="393.522273" style="fill: #20718b; fill-opacity: 0.7; stroke: #ffffff; stroke-opacity: 0.7; stroke-width: 0.48"/>
    </g>
    <g clip-path="url(#pa5a8e56ee5)">
     <use xlink:href="#C0_0_f61b83db4c" x="171.392898" y="383.616769" style="fill: #37888d; fill-opacity: 0.7; stroke: #ffffff; stroke-opacity: 0.7; stroke-width: 0.48"/>
    </g>
    <g clip-path="url(#pa5a8e56ee5)">
     <use xlink:href="#C0_0_f61b83db4c" x="207.816219" y="348.634926" style="fill: #85bd91; fill-opacity: 0.7; stroke: #ffffff; stroke-opacity: 0.7; stroke-width: 0.48"/>
    </g>
    <g clip-path="url(#pa5a8e56ee5)">
     <use xlink:href="#C0_0_f61b83db4c" x="277.47515" y="306.092631" style="fill: #68af90; fill-opacity: 0.7; stroke: #ffffff; stroke-opacity: 0.7; stroke-width: 0.48"/>
    </g>
    <g clip-path="url(#pa5a8e56ee5)">
     <use xlink:href="#C0_0_f61b83db4c" x="137.178109" y="395.453536" style="fill: #205784; fill-opacity: 0.7; stroke: #ffffff; stroke-opacity: 0.7; stroke-width: 0.48"/>
    </g>
    <g clip-path="url(#pa5a8e56ee5)">
     <use xlink:href="#C0_0_f61b83db4c" x="128.926038" y="382.846686" style="fill: #1c6689; fill-opacity: 0.7; stroke: #ffffff; stroke-opacity: 0.7; stroke-width: 0.48"/>
    </g>
    <g clip-path="url(#pa5a8e56ee5)">
     <use xlink:href="#C0_0_f61b83db4c" x="122.829879" y="398.579711" style="fill: #2c3172; fill-opacity: 0.7; stroke: #ffffff; stroke-opacity: 0.7; stroke-width: 0.48"/>
    </g>
    <g clip-path="url(#pa5a8e56ee5)">
     <use xlink:href="#C0_0_f61b83db4c" x="202.914806" y="390.497023" style="fill: #22748b; fill-opacity: 0.7; stroke: #ffffff; stroke-opacity: 0.7; stroke-width: 0.48"/>
    </g>
    <g clip-path="url(#pa5a8e56ee5)">
     <use xlink:href="#C0_0_f61b83db4c" x="134.53396" y="397.90585" style="fill: #1c6889; fill-opacity: 0.7; stroke: #ffffff; stroke-opacity: 0.7; stroke-width: 0.48"/>
    </g>
    <g clip-path="url(#pa5a8e56ee5)">
     <use xlink:href="#C0_0_f61b83db4c" x="204.916703" y="391.576008" style="fill: #5ca890; fill-opacity: 0.7; stroke: #ffffff; stroke-opacity: 0.7; stroke-width: 0.48"/>
    </g>
    <g clip-path="url(#pa5a8e56ee5)">
     <use xlink:href="#C0_0_f61b83db4c" x="200.854022" y="399.418409" style="fill: #1d6188; fill-opacity: 0.7; stroke: #ffffff; stroke-opacity: 0.7; stroke-width: 0.48"/>
    </g>
    <g clip-path="url(#pa5a8e56ee5)">
     <use xlink:href="#C0_0_f61b83db4c" x="168.13363" y="390.193322" style="fill: #57a490; fill-opacity: 0.7; stroke: #ffffff; stroke-opacity: 0.7; stroke-width: 0.48"/>
    </g>
    <g clip-path="url(#pa5a8e56ee5)">
     <use xlink:href="#C0_0_f61b83db4c" x="91.163066" y="396.672701" style="fill: #519f90; fill-opacity: 0.7; stroke: #ffffff; stroke-opacity: 0.7; stroke-width: 0.48"/>
    </g>
    <g clip-path="url(#pa5a8e56ee5)">
     <use xlink:href="#C0_0_f61b83db4c" x="224.57704" y="396.296255" style="fill: #88bf91; fill-opacity: 0.7; stroke: #ffffff; stroke-opacity: 0.7; stroke-width: 0.48"/>
    </g>
    <g clip-path="url(#pa5a8e56ee5)">
     <use xlink:href="#C0_0_f61b83db4c" x="181.736517" y="392.909514" style="fill: #28447b; fill-opacity: 0.7; stroke: #ffffff; stroke-opacity: 0.7; stroke-width: 0.48"/>
    </g>
    <g clip-path="url(#pa5a8e56ee5)">
     <use xlink:href="#C0_0_f61b83db4c" x="204.916703" y="396.554279" style="fill: #3f8f8e; fill-opacity: 0.7; stroke: #ffffff; stroke-opacity: 0.7; stroke-width: 0.48"/>
    </g>
    <g clip-path="url(#pa5a8e56ee5)">
     <use xlink:href="#C0_0_f61b83db4c" x="193.122857" y="347.391455" style="fill: #2f818d; fill-opacity: 0.7; stroke: #ffffff; stroke-opacity: 0.7; stroke-width: 0.48"/>
    </g>
    <g clip-path="url(#pa5a8e56ee5)">
     <use xlink:href="#C0_0_f61b83db4c" x="168.13363" y="350.759892" style="fill: #2c3172; fill-opacity: 0.7; stroke: #ffffff; stroke-opacity: 0.7; stroke-width: 0.48"/>
    </g>
    <g clip-path="url(#pa5a8e56ee5)">
     <use xlink:href="#C0_0_f61b83db4c" x="116.152293" y="399.797128" style="fill: #2b7d8c; fill-opacity: 0.7; stroke: #ffffff; stroke-opacity: 0.7; stroke-width: 0.48"/>
    </g>
    <g clip-path="url(#pa5a8e56ee5)">
     <use xlink:href="#C0_0_f61b83db4c" x="157.333583" y="377.223054" style="fill: #31828d; fill-opacity: 0.7; stroke: #ffffff; stroke-opacity: 0.7; stroke-width: 0.48"/>
    </g>
    <g clip-path="url(#pa5a8e56ee5)">
     <use xlink:href="#C0_0_f61b83db4c" x="200.854022" y="396.927702" style="fill: #5ba690; fill-opacity: 0.7; stroke: #ffffff; stroke-opacity: 0.7; stroke-width: 0.48"/>
    </g>
    <g clip-path="url(#pa5a8e56ee5)">
     <use xlink:href="#C0_0_f61b83db4c" x="174.507261" y="372.146702" style="fill: #1e5b86; fill-opacity: 0.7; stroke: #ffffff; stroke-opacity: 0.7; stroke-width: 0.48"/>
    </g>
    <g clip-path="url(#pa5a8e56ee5)">
     <use xlink:href="#C0_0_f61b83db4c" x="224.57704" y="395.625707" style="fill: #287b8c; fill-opacity: 0.7; stroke: #ffffff; stroke-opacity: 0.7; stroke-width: 0.48"/>
    </g>
    <g clip-path="url(#pa5a8e56ee5)">
     <use xlink:href="#C0_0_f61b83db4c" x="128.926038" y="398.995163" style="fill: #5ca890; fill-opacity: 0.7; stroke: #ffffff; stroke-opacity: 0.7; stroke-width: 0.48"/>
    </g>
    <g clip-path="url(#pa5a8e56ee5)">
     <use xlink:href="#C0_0_f61b83db4c" x="262.277873" y="322.621997" style="fill: #3c8d8e; fill-opacity: 0.7; stroke: #ffffff; stroke-opacity: 0.7; stroke-width: 0.48"/>
    </g>
    <g clip-path="url(#pa5a8e56ee5)">
     <use xlink:href="#C0_0_f61b83db4c" x="122.829879" y="396.673528" style="fill: #45958f; fill-opacity: 0.7; stroke: #ffffff; stroke-opacity: 0.7; stroke-width: 0.48"/>
    </g>
    <g clip-path="url(#pa5a8e56ee5)">
     <use xlink:href="#C0_0_f61b83db4c" x="324.801236" y="290.034504" style="fill: #1d6c8a; fill-opacity: 0.7; stroke: #ffffff; stroke-opacity: 0.7; stroke-width: 0.48"/>
    </g>
    <g clip-path="url(#pa5a8e56ee5)">
     <use xlink:href="#C0_0_f61b83db4c" x="168.13363" y="390.297416" style="fill: #1e6d8a; fill-opacity: 0.7; stroke: #ffffff; stroke-opacity: 0.7; stroke-width: 0.48"/>
    </g>
    <g clip-path="url(#pa5a8e56ee5)">
     <use xlink:href="#C0_0_f61b83db4c" x="134.53396" y="376.692978" style="fill: #1d6188; fill-opacity: 0.7; stroke: #ffffff; stroke-opacity: 0.7; stroke-width: 0.48"/>
    </g>
    <g clip-path="url(#pa5a8e56ee5)">
     <use xlink:href="#C0_0_f61b83db4c" x="343.606733" y="275.04862" style="fill: #28447b; fill-opacity: 0.7; stroke: #ffffff; stroke-opacity: 0.7; stroke-width: 0.48"/>
    </g>
    <g clip-path="url(#pa5a8e56ee5)">
     <use xlink:href="#C0_0_f61b83db4c" x="122.829879" y="381.019423" style="fill: #88bf91; fill-opacity: 0.7; stroke: #ffffff; stroke-opacity: 0.7; stroke-width: 0.48"/>
    </g>
    <g clip-path="url(#pa5a8e56ee5)">
     <use xlink:href="#C0_0_f61b83db4c" x="151.237424" y="395.999775" style="fill: #235082; fill-opacity: 0.7; stroke: #ffffff; stroke-opacity: 0.7; stroke-width: 0.48"/>
    </g>
    <g clip-path="url(#pa5a8e56ee5)">
     <use xlink:href="#C0_0_f61b83db4c" x="128.926038" y="367.573533" style="fill: #29417a; fill-opacity: 0.7; stroke: #ffffff; stroke-opacity: 0.7; stroke-width: 0.48"/>
    </g>
    <g clip-path="url(#pa5a8e56ee5)">
     <use xlink:href="#C0_0_f61b83db4c" x="264.420597" y="317.890909" style="fill: #1e6e8a; fill-opacity: 0.7; stroke: #ffffff; stroke-opacity: 0.7; stroke-width: 0.48"/>
    </g>
    <g clip-path="url(#pa5a8e56ee5)">
     <use xlink:href="#C0_0_f61b83db4c" x="174.507261" y="372.095389" style="fill: #1c6889; fill-opacity: 0.7; stroke: #ffffff; stroke-opacity: 0.7; stroke-width: 0.48"/>
    </g>
    <g clip-path="url(#pa5a8e56ee5)">
     <use xlink:href="#C0_0_f61b83db4c" x="274.615095" y="316.242413" style="fill: #2b3b76; fill-opacity: 0.7; stroke: #ffffff; stroke-opacity: 0.7; stroke-width: 0.48"/>
    </g>
    <g clip-path="url(#pa5a8e56ee5)">
     <use xlink:href="#C0_0_f61b83db4c" x="324.801236" y="289.461454" style="fill: #1e6d8a; fill-opacity: 0.7; stroke: #ffffff; stroke-opacity: 0.7; stroke-width: 0.48"/>
    </g>
    <g clip-path="url(#pa5a8e56ee5)">
     <use xlink:href="#C0_0_f61b83db4c" x="224.57704" y="396.183937" style="fill: #3c8d8e; fill-opacity: 0.7; stroke: #ffffff; stroke-opacity: 0.7; stroke-width: 0.48"/>
    </g>
    <g clip-path="url(#pa5a8e56ee5)">
     <use xlink:href="#C0_0_f61b83db4c" x="164.715312" y="354.703213" style="fill: #205784; fill-opacity: 0.7; stroke: #ffffff; stroke-opacity: 0.7; stroke-width: 0.48"/>
    </g>
    <g clip-path="url(#pa5a8e56ee5)">
     <use xlink:href="#C0_0_f61b83db4c" x="169.782215" y="380.211614" style="fill: #28447b; fill-opacity: 0.7; stroke: #ffffff; stroke-opacity: 0.7; stroke-width: 0.48"/>
    </g>
    <g clip-path="url(#pa5a8e56ee5)">
     <use xlink:href="#C0_0_f61b83db4c" x="264.841389" y="320.567795" style="fill: #3f8f8e; fill-opacity: 0.7; stroke: #ffffff; stroke-opacity: 0.7; stroke-width: 0.48"/>
    </g>
    <g clip-path="url(#pa5a8e56ee5)">
     <use xlink:href="#C0_0_f61b83db4c" x="80.363019" y="372.142108" style="fill: #234f81; fill-opacity: 0.7; stroke: #ffffff; stroke-opacity: 0.7; stroke-width: 0.48"/>
    </g>
    <g clip-path="url(#pa5a8e56ee5)">
     <use xlink:href="#C0_0_f61b83db4c" x="251.983687" y="289.765176" style="fill: #47978f; fill-opacity: 0.7; stroke: #ffffff; stroke-opacity: 0.7; stroke-width: 0.48"/>
    </g>
    <g clip-path="url(#pa5a8e56ee5)">
     <use xlink:href="#C0_0_f61b83db4c" x="309.523079" y="290.472384" style="fill: #1e5d86; fill-opacity: 0.7; stroke: #ffffff; stroke-opacity: 0.7; stroke-width: 0.48"/>
    </g>
    <g clip-path="url(#pa5a8e56ee5)">
     <use xlink:href="#C0_0_f61b83db4c" x="80.363019" y="395.949817" style="fill: #27467c; fill-opacity: 0.7; stroke: #ffffff; stroke-opacity: 0.7; stroke-width: 0.48"/>
    </g>
    <g clip-path="url(#pa5a8e56ee5)">
     <use xlink:href="#C0_0_f61b83db4c" x="220.747583" y="396.00996" style="fill: #20718b; fill-opacity: 0.7; stroke: #ffffff; stroke-opacity: 0.7; stroke-width: 0.48"/>
    </g>
    <g clip-path="url(#pa5a8e56ee5)">
     <use xlink:href="#C0_0_f61b83db4c" x="298.500966" y="285.061158" style="fill: #254a7f; fill-opacity: 0.7; stroke: #ffffff; stroke-opacity: 0.7; stroke-width: 0.48"/>
    </g>
    <g clip-path="url(#pa5a8e56ee5)">
     <use xlink:href="#C0_0_f61b83db4c" x="134.53396" y="400.305669" style="fill: #27467c; fill-opacity: 0.7; stroke: #ffffff; stroke-opacity: 0.7; stroke-width: 0.48"/>
    </g>
    <g clip-path="url(#pa5a8e56ee5)">
     <use xlink:href="#C0_0_f61b83db4c" x="220.747583" y="395.901998" style="fill: #43948f; fill-opacity: 0.7; stroke: #ffffff; stroke-opacity: 0.7; stroke-width: 0.48"/>
    </g>
    <g clip-path="url(#pa5a8e56ee5)">
     <use xlink:href="#C0_0_f61b83db4c" x="164.715312" y="353.747969" style="fill: #28447b; fill-opacity: 0.7; stroke: #ffffff; stroke-opacity: 0.7; stroke-width: 0.48"/>
    </g>
    <g clip-path="url(#pa5a8e56ee5)">
     <use xlink:href="#C0_0_f61b83db4c" x="134.53396" y="397.297882" style="fill: #1c6488; fill-opacity: 0.7; stroke: #ffffff; stroke-opacity: 0.7; stroke-width: 0.48"/>
    </g>
    <g clip-path="url(#pa5a8e56ee5)">
     <use xlink:href="#C0_0_f61b83db4c" x="251.477825" y="332.666429" style="fill: #43948f; fill-opacity: 0.7; stroke: #ffffff; stroke-opacity: 0.7; stroke-width: 0.48"/>
    </g>
    <g clip-path="url(#pa5a8e56ee5)">
     <use xlink:href="#C0_0_f61b83db4c" x="174.507261" y="343.932734" style="fill: #8dc191; fill-opacity: 0.7; stroke: #ffffff; stroke-opacity: 0.7; stroke-width: 0.48"/>
    </g>
    <g clip-path="url(#pa5a8e56ee5)">
     <use xlink:href="#C0_0_f61b83db4c" x="329.122064" y="252.158611" style="fill: #2c3172; fill-opacity: 0.7; stroke: #ffffff; stroke-opacity: 0.7; stroke-width: 0.48"/>
    </g>
    <g clip-path="url(#pa5a8e56ee5)">
     <use xlink:href="#C0_0_f61b83db4c" x="168.13363" y="390.470001" style="fill: #1d6388; fill-opacity: 0.7; stroke: #ffffff; stroke-opacity: 0.7; stroke-width: 0.48"/>
    </g>
    <g clip-path="url(#pa5a8e56ee5)">
     <use xlink:href="#C0_0_f61b83db4c" x="264.841389" y="321.086848" style="fill: #1d6a8a; fill-opacity: 0.7; stroke: #ffffff; stroke-opacity: 0.7; stroke-width: 0.48"/>
    </g>
    <g clip-path="url(#pa5a8e56ee5)">
     <use xlink:href="#C0_0_f61b83db4c" x="224.57704" y="395.66546" style="fill: #3c8d8e; fill-opacity: 0.7; stroke: #ffffff; stroke-opacity: 0.7; stroke-width: 0.48"/>
    </g>
    <g clip-path="url(#pa5a8e56ee5)">
     <use xlink:href="#C0_0_f61b83db4c" x="174.507261" y="371.915978" style="fill: #294079; fill-opacity: 0.7; stroke: #ffffff; stroke-opacity: 0.7; stroke-width: 0.48"/>
    </g>
    <g clip-path="url(#pa5a8e56ee5)">
     <use xlink:href="#C0_0_f61b83db4c" x="204.916703" y="396.588317" style="fill: #88bf91; fill-opacity: 0.7; stroke: #ffffff; stroke-opacity: 0.7; stroke-width: 0.48"/>
    </g>
    <g clip-path="url(#pa5a8e56ee5)">
     <use xlink:href="#C0_0_f61b83db4c" x="194.280927" y="388.728362" style="fill: #1e5d86; fill-opacity: 0.7; stroke: #ffffff; stroke-opacity: 0.7; stroke-width: 0.48"/>
    </g>
    <g clip-path="url(#pa5a8e56ee5)">
     <use xlink:href="#C0_0_f61b83db4c" x="116.152293" y="380.790157" style="fill: #47978f; fill-opacity: 0.7; stroke: #ffffff; stroke-opacity: 0.7; stroke-width: 0.48"/>
    </g>
    <g clip-path="url(#pa5a8e56ee5)">
     <use xlink:href="#C0_0_f61b83db4c" x="198.730779" y="398.726541" style="fill: #3c8d8e; fill-opacity: 0.7; stroke: #ffffff; stroke-opacity: 0.7; stroke-width: 0.48"/>
    </g>
    <g clip-path="url(#pa5a8e56ee5)">
     <use xlink:href="#C0_0_f61b83db4c" x="168.13363" y="391.245101" style="fill: #2b7d8c; fill-opacity: 0.7; stroke: #ffffff; stroke-opacity: 0.7; stroke-width: 0.48"/>
    </g>
    <g clip-path="url(#pa5a8e56ee5)">
     <use xlink:href="#C0_0_f61b83db4c" x="74.26686" y="377.026113" style="fill: #3b8c8e; fill-opacity: 0.7; stroke: #ffffff; stroke-opacity: 0.7; stroke-width: 0.48"/>
    </g>
    <g clip-path="url(#pa5a8e56ee5)">
     <use xlink:href="#C0_0_f61b83db4c" x="324.801236" y="290.042744" style="fill: #2a3d78; fill-opacity: 0.7; stroke: #ffffff; stroke-opacity: 0.7; stroke-width: 0.48"/>
    </g>
    <g clip-path="url(#pa5a8e56ee5)">
     <use xlink:href="#C0_0_f61b83db4c" x="174.507261" y="341.734399" style="fill: #35878d; fill-opacity: 0.7; stroke: #ffffff; stroke-opacity: 0.7; stroke-width: 0.48"/>
    </g>
    <g clip-path="url(#pa5a8e56ee5)">
     <use xlink:href="#C0_0_f61b83db4c" x="206.862985" y="389.717671" style="fill: #88bf91; fill-opacity: 0.7; stroke: #ffffff; stroke-opacity: 0.7; stroke-width: 0.48"/>
    </g>
    <g clip-path="url(#pa5a8e56ee5)">
     <use xlink:href="#C0_0_f61b83db4c" x="226.77811" y="370.987476" style="fill: #2a3c77; fill-opacity: 0.7; stroke: #ffffff; stroke-opacity: 0.7; stroke-width: 0.48"/>
    </g>
    <g clip-path="url(#pa5a8e56ee5)">
     <use xlink:href="#C0_0_f61b83db4c" x="269.703105" y="137.577233" style="fill: #28447b; fill-opacity: 0.7; stroke: #ffffff; stroke-opacity: 0.7; stroke-width: 0.48"/>
    </g>
    <g clip-path="url(#pa5a8e56ee5)">
     <use xlink:href="#C0_0_f61b83db4c" x="168.13363" y="390.866256" style="fill: #74b690; fill-opacity: 0.7; stroke: #ffffff; stroke-opacity: 0.7; stroke-width: 0.48"/>
    </g>
    <g clip-path="url(#pa5a8e56ee5)">
     <use xlink:href="#C0_0_f61b83db4c" x="134.53396" y="397.182672" style="fill: #68af90; fill-opacity: 0.7; stroke: #ffffff; stroke-opacity: 0.7; stroke-width: 0.48"/>
    </g>
    <g clip-path="url(#pa5a8e56ee5)">
     <use xlink:href="#C0_0_f61b83db4c" x="267.314409" y="315.810516" style="fill: #76b791; fill-opacity: 0.7; stroke: #ffffff; stroke-opacity: 0.7; stroke-width: 0.48"/>
    </g>
    <g clip-path="url(#pa5a8e56ee5)">
     <use xlink:href="#C0_0_f61b83db4c" x="262.277873" y="327.339579" style="fill: #1d6c8a; fill-opacity: 0.7; stroke: #ffffff; stroke-opacity: 0.7; stroke-width: 0.48"/>
    </g>
    <g clip-path="url(#pa5a8e56ee5)">
     <use xlink:href="#C0_0_f61b83db4c" x="149.081512" y="347.485449" style="fill: #88bf91; fill-opacity: 0.7; stroke: #ffffff; stroke-opacity: 0.7; stroke-width: 0.48"/>
    </g>
    <g clip-path="url(#pa5a8e56ee5)">
     <use xlink:href="#C0_0_f61b83db4c" x="324.084487" y="288.783017" style="fill: #1d6087; fill-opacity: 0.7; stroke: #ffffff; stroke-opacity: 0.7; stroke-width: 0.48"/>
    </g>
    <g clip-path="url(#pa5a8e56ee5)">
     <use xlink:href="#C0_0_f61b83db4c" x="171.392898" y="339.300482" style="fill: #2c3172; fill-opacity: 0.7; stroke: #ffffff; stroke-opacity: 0.7; stroke-width: 0.48"/>
    </g>
    <g clip-path="url(#pa5a8e56ee5)">
     <use xlink:href="#C0_0_f61b83db4c" x="151.237424" y="354.608313" style="fill: #21728b; fill-opacity: 0.7; stroke: #ffffff; stroke-opacity: 0.7; stroke-width: 0.48"/>
    </g>
    <g clip-path="url(#pa5a8e56ee5)">
     <use xlink:href="#C0_0_f61b83db4c" x="168.13363" y="390.492087" style="fill: #1c6889; fill-opacity: 0.7; stroke: #ffffff; stroke-opacity: 0.7; stroke-width: 0.48"/>
    </g>
    <g clip-path="url(#pa5a8e56ee5)">
     <use xlink:href="#C0_0_f61b83db4c" x="227.496697" y="320.326646" style="fill: #37888d; fill-opacity: 0.7; stroke: #ffffff; stroke-opacity: 0.7; stroke-width: 0.48"/>
    </g>
    <g clip-path="url(#pa5a8e56ee5)">
     <use xlink:href="#C0_0_f61b83db4c" x="251.983687" y="308.497053" style="fill: #28447b; fill-opacity: 0.7; stroke: #ffffff; stroke-opacity: 0.7; stroke-width: 0.48"/>
    </g>
    <g clip-path="url(#pa5a8e56ee5)">
     <use xlink:href="#C0_0_f61b83db4c" x="328.448389" y="288.305333" style="fill: #5ba690; fill-opacity: 0.7; stroke: #ffffff; stroke-opacity: 0.7; stroke-width: 0.48"/>
    </g>
    <g clip-path="url(#pa5a8e56ee5)">
     <use xlink:href="#C0_0_f61b83db4c" x="262.277873" y="322.671575" style="fill: #1c6789; fill-opacity: 0.7; stroke: #ffffff; stroke-opacity: 0.7; stroke-width: 0.48"/>
    </g>
    <g clip-path="url(#pa5a8e56ee5)">
     <use xlink:href="#C0_0_f61b83db4c" x="108.770564" y="399.296056" style="fill: #88bf91; fill-opacity: 0.7; stroke: #ffffff; stroke-opacity: 0.7; stroke-width: 0.48"/>
    </g>
    <g clip-path="url(#pa5a8e56ee5)">
     <use xlink:href="#C0_0_f61b83db4c" x="166.445317" y="383.366646" style="fill: #55a290; fill-opacity: 0.7; stroke: #ffffff; stroke-opacity: 0.7; stroke-width: 0.48"/>
    </g>
    <g clip-path="url(#pa5a8e56ee5)">
     <use xlink:href="#C0_0_f61b83db4c" x="164.715312" y="363.024386" style="fill: #1f708b; fill-opacity: 0.7; stroke: #ffffff; stroke-opacity: 0.7; stroke-width: 0.48"/>
    </g>
    <g clip-path="url(#pa5a8e56ee5)">
     <use xlink:href="#C0_0_f61b83db4c" x="262.277873" y="322.280192" style="fill: #294079; fill-opacity: 0.7; stroke: #ffffff; stroke-opacity: 0.7; stroke-width: 0.48"/>
    </g>
    <g clip-path="url(#pa5a8e56ee5)">
     <use xlink:href="#C0_0_f61b83db4c" x="149.081512" y="345.781054" style="fill: #1e6d8a; fill-opacity: 0.7; stroke: #ffffff; stroke-opacity: 0.7; stroke-width: 0.48"/>
    </g>
   </g>
   <g id="PathCollection_2"/>
   <g id="PathCollection_3"/>
   <g id="PathCollection_4"/>
   <g id="PathCollection_5"/>
   <g id="patch_3">
    <path d="M 31.8 405.2 
L 31.8 78.411429 
" style="fill: none; stroke: #262626; stroke-width: 0.8; stroke-linejoin: miter; stroke-linecap: square"/>
   </g>
   <g id="patch_4">
    <path d="M 31.8 405.2 
L 354.445714 405.2 
" style="fill: none; stroke: #262626; stroke-width: 0.8; stroke-linejoin: miter; stroke-linecap: square"/>
   </g>
   <g id="legend_1">
    <g id="patch_5">
     <path d="M 38.8 142.992679 
L 90.260938 142.992679 
Q 92.260938 142.992679 92.260938 140.992679 
L 92.260938 85.411429 
Q 92.260938 83.411429 90.260938 83.411429 
L 38.8 83.411429 
Q 36.8 83.411429 36.8 85.411429 
L 36.8 140.992679 
Q 36.8 142.992679 38.8 142.992679 
z
" style="fill: #ffffff; opacity: 0.8; stroke: #cccccc; stroke-linejoin: miter"/>
    </g>
    <g id="PathCollection_6">
     <defs>
      <path id="m1b61ab2817" d="M 0 3 
C 0.795609 3 1.55874 2.683901 2.12132 2.12132 
C 2.683901 1.55874 3 0.795609 3 0 
C 3 -0.795609 2.683901 -1.55874 2.12132 -2.12132 
C 1.55874 -2.683901 0.795609 -3 0 -3 
C -0.795609 -3 -1.55874 -2.683901 -2.12132 -2.12132 
C -2.683901 -1.55874 -3 -0.795609 -3 0 
C -3 0.795609 -2.683901 1.55874 -2.12132 2.12132 
C -1.55874 2.683901 -0.795609 3 0 3 
z
" style="stroke: #205784"/>
     </defs>
     <g>
      <use xlink:href="#m1b61ab2817" x="50.8" y="91.944241" style="fill: #205784; stroke: #205784"/>
     </g>
    </g>
    <g id="text_11">
     <!-- 0.04 -->
     <g style="fill: #262626" transform="translate(68.8 94.569241)scale(0.1 -0.1)">
      <defs>
       <path id="ArialMT-2e" d="M 581 0 
L 581 641 
L 1222 641 
L 1222 0 
L 581 0 
z
" transform="scale(0.015625)"/>
      </defs>
      <use xlink:href="#ArialMT-30"/>
      <use xlink:href="#ArialMT-2e" x="55.615234"/>
      <use xlink:href="#ArialMT-30" x="83.398438"/>
      <use xlink:href="#ArialMT-34" x="139.013672"/>
     </g>
    </g>
    <g id="PathCollection_7">
     <defs>
      <path id="m348a96645c" d="M 0 3 
C 0.795609 3 1.55874 2.683901 2.12132 2.12132 
C 2.683901 1.55874 3 0.795609 3 0 
C 3 -0.795609 2.683901 -1.55874 2.12132 -2.12132 
C 1.55874 -2.683901 0.795609 -3 0 -3 
C -0.795609 -3 -1.55874 -2.683901 -2.12132 -2.12132 
C -2.683901 -1.55874 -3 -0.795609 -3 0 
C -3 0.795609 -2.683901 1.55874 -2.12132 2.12132 
C -1.55874 2.683901 -0.795609 3 0 3 
z
" style="stroke: #297b8c"/>
     </defs>
     <g>
      <use xlink:href="#m348a96645c" x="50.8" y="106.089554" style="fill: #297b8c; stroke: #297b8c"/>
     </g>
    </g>
    <g id="text_12">
     <!-- 0.08 -->
     <g style="fill: #262626" transform="translate(68.8 108.714554)scale(0.1 -0.1)">
      <use xlink:href="#ArialMT-30"/>
      <use xlink:href="#ArialMT-2e" x="55.615234"/>
      <use xlink:href="#ArialMT-30" x="83.398438"/>
      <use xlink:href="#ArialMT-38" x="139.013672"/>
     </g>
    </g>
    <g id="PathCollection_8">
     <defs>
      <path id="m41d489b48c" d="M 0 3 
C 0.795609 3 1.55874 2.683901 2.12132 2.12132 
C 2.683901 1.55874 3 0.795609 3 0 
C 3 -0.795609 2.683901 -1.55874 2.12132 -2.12132 
C 1.55874 -2.683901 0.795609 -3 0 -3 
C -0.795609 -3 -1.55874 -2.683901 -2.12132 -2.12132 
C -2.683901 -1.55874 -3 -0.795609 -3 0 
C -3 0.795609 -2.683901 1.55874 -2.12132 2.12132 
C -1.55874 2.683901 -0.795609 3 0 3 
z
" style="stroke: #4e9d90"/>
     </defs>
     <g>
      <use xlink:href="#m41d489b48c" x="50.8" y="120.234866" style="fill: #4e9d90; stroke: #4e9d90"/>
     </g>
    </g>
    <g id="text_13">
     <!-- 0.12 -->
     <g style="fill: #262626" transform="translate(68.8 122.859866)scale(0.1 -0.1)">
      <use xlink:href="#ArialMT-30"/>
      <use xlink:href="#ArialMT-2e" x="55.615234"/>
      <use xlink:href="#ArialMT-31" x="83.398438"/>
      <use xlink:href="#ArialMT-32" x="139.013672"/>
     </g>
    </g>
    <g id="PathCollection_9">
     <defs>
      <path id="mb2531411b6" d="M 0 3 
C 0.795609 3 1.55874 2.683901 2.12132 2.12132 
C 2.683901 1.55874 3 0.795609 3 0 
C 3 -0.795609 2.683901 -1.55874 2.12132 -2.12132 
C 1.55874 -2.683901 0.795609 -3 0 -3 
C -0.795609 -3 -1.55874 -2.683901 -2.12132 -2.12132 
C -2.683901 -1.55874 -3 -0.795609 -3 0 
C -3 0.795609 -2.683901 1.55874 -2.12132 2.12132 
C -1.55874 2.683901 -0.795609 3 0 3 
z
" style="stroke: #82bc91"/>
     </defs>
     <g>
      <use xlink:href="#mb2531411b6" x="50.8" y="134.380179" style="fill: #82bc91; stroke: #82bc91"/>
     </g>
    </g>
    <g id="text_14">
     <!-- 0.16 -->
     <g style="fill: #262626" transform="translate(68.8 137.005179)scale(0.1 -0.1)">
      <use xlink:href="#ArialMT-30"/>
      <use xlink:href="#ArialMT-2e" x="55.615234"/>
      <use xlink:href="#ArialMT-31" x="83.398438"/>
      <use xlink:href="#ArialMT-36" x="139.013672"/>
     </g>
    </g>
   </g>
  </g>
  <g id="axes_2">
   <g id="patch_6">
    <path d="M 31.8 67.142857 
L 354.445714 67.142857 
L 354.445714 10.8 
L 31.8 10.8 
z
" style="fill: #ffffff"/>
   </g>
   <g id="matplotlib.axis_3">
    <g id="xtick_20"/>
    <g id="xtick_21"/>
    <g id="xtick_22"/>
    <g id="xtick_23"/>
    <g id="xtick_24"/>
    <g id="xtick_25"/>
    <g id="xtick_26"/>
    <g id="xtick_27"/>
    <g id="xtick_28"/>
    <g id="xtick_29"/>
    <g id="xtick_30"/>
    <g id="xtick_31"/>
    <g id="xtick_32"/>
    <g id="xtick_33"/>
    <g id="xtick_34"/>
    <g id="xtick_35"/>
    <g id="xtick_36"/>
    <g id="xtick_37"/>
    <g id="xtick_38"/>
   </g>
   <g id="matplotlib.axis_4">
    <g id="ytick_7"/>
    <g id="ytick_8"/>
   </g>
   <g id="line2d_20">
    <path d="M -1 60.446638 
L 23.654323 59.850415 
L 44.552659 59.136069 
L 67.466037 58.077776 
L 89.620953 56.751537 
L 128.649294 54.224202 
L 138.764112 53.861342 
L 147.601182 53.805435 
L 155.447419 54.016872 
L 162.50278 54.42963 
L 171.909651 55.241774 
L 185.230291 56.420523 
L 191.047426 56.71343 
L 197.444873 56.812705 
L 207.842768 56.912847 
L 211.271349 57.153043 
L 214.539946 57.576865 
L 217.662826 58.19216 
L 220.652427 58.978663 
L 224.218506 60.13742 
L 230.212914 62.387787 
L 235.142157 64.173071 
L 238.624063 65.220832 
L 241.941087 65.987762 
L 245.108143 66.500618 
L 248.630717 66.850789 
L 253.374283 67.065471 
L 256.07354 67.111888 
L 256.07354 67.111888 
" clip-path="url(#pd5e8ec5127)" style="fill: none; stroke: #88bf91; stroke-width: 1.5; stroke-linecap: round"/>
   </g>
   <g id="line2d_21">
    <path d="M -1 66.642262 
L 295.501598 66.733191 
L 344.598628 67.138082 
L 344.598628 67.138082 
" clip-path="url(#pd5e8ec5127)" style="fill: none; stroke: #68af90; stroke-width: 1.5; stroke-linecap: round"/>
   </g>
   <g id="line2d_22">
    <path d="M -1 64.280147 
L 38.400512 63.96699 
L 80.928189 63.422205 
L 126.266669 62.815389 
L 143.448649 62.828577 
L 157.235829 63.062496 
L 173.160002 63.573707 
L 216.408331 65.285471 
L 242.422754 66.981412 
L 251.367119 67.119923 
L 251.367119 67.119923 
" clip-path="url(#pd5e8ec5127)" style="fill: none; stroke: #5ca890; stroke-width: 1.5; stroke-linecap: round"/>
   </g>
   <g id="line2d_23">
    <path d="M -1 66.900929 
L 357.779605 67.006669 
L 393.973567 67.140463 
L 393.973567 67.140463 
" clip-path="url(#pd5e8ec5127)" style="fill: none; stroke: #5ba690; stroke-width: 1.5; stroke-linecap: round"/>
   </g>
   <g id="line2d_24">
    <path d="M -1 66.515893 
L 156.973671 66.339654 
L 247.2507 66.233185 
L 270.483651 66.436389 
L 319.915069 67.135569 
L 319.915069 67.135569 
" clip-path="url(#pd5e8ec5127)" style="fill: none; stroke: #57a490; stroke-width: 1.5; stroke-linecap: round"/>
   </g>
   <g id="line2d_25">
    <path d="M 161.684578 66.727451 
L 162.200313 66.335788 
L 162.712279 65.654941 
L 163.220531 64.53936 
L 163.725122 62.818082 
L 164.226106 60.320001 
L 164.806094 56.254043 
L 165.544808 49.169997 
L 166.678656 35.460913 
L 167.794447 22.799766 
L 168.424153 17.767602 
L 168.970541 14.98512 
L 169.358225 13.887185 
L 169.666836 13.5097 
L 169.897405 13.5097 
L 170.127218 13.751934 
L 170.432467 14.460226 
L 170.812167 15.994252 
L 171.265108 18.841248 
L 171.86451 24.352056 
L 172.680403 34.457545 
L 174.284226 54.853825 
L 174.929899 60.320001 
L 175.498877 63.470088 
L 175.99297 65.161797 
L 176.483603 66.147467 
L 176.970825 66.677132 
L 177.040152 66.727451 
L 177.040152 66.727451 
" clip-path="url(#pd5e8ec5127)" style="fill: none; stroke: #509e90; stroke-width: 1.5; stroke-linecap: round"/>
   </g>
   <g id="line2d_26">
    <path d="M -1 65.505394 
L 188.518927 65.471144 
L 229.328062 65.87625 
L 264.930515 66.351205 
L 302.809076 67.123516 
L 305.98698 67.13337 
L 305.98698 67.13337 
" clip-path="url(#pd5e8ec5127)" style="fill: none; stroke: #47978f; stroke-width: 1.5; stroke-linecap: round"/>
   </g>
   <g id="line2d_27">
    <path d="M -1 65.564158 
L 61.852409 65.381601 
L 120.484136 64.989355 
L 178.712374 64.315848 
L 205.15901 64.125857 
L 221.68612 64.23845 
L 236.146495 64.577098 
L 249.038607 65.103066 
L 261.457105 65.840203 
L 277.642988 66.821274 
L 286.139039 67.064965 
L 293.234964 67.129122 
L 293.234964 67.129122 
" clip-path="url(#pd5e8ec5127)" style="fill: none; stroke: #43948f; stroke-width: 1.5; stroke-linecap: round"/>
   </g>
   <g id="line2d_28">
    <path d="M -1 66.189706 
L 87.292762 65.9823 
L 144.107998 65.626825 
L 205.119717 65.210848 
L 224.558716 65.348899 
L 261.934835 65.955348 
L 276.58415 66.327025 
L 301.63211 67.081345 
L 309.403129 67.132538 
L 309.403129 67.132538 
" clip-path="url(#pd5e8ec5127)" style="fill: none; stroke: #3f8f8e; stroke-width: 1.5; stroke-linecap: round"/>
   </g>
   <g id="line2d_29">
    <path d="M -1 66.893462 
L 80.456629 66.71516 
L 117.848873 66.442942 
L 142.098582 66.067381 
L 160.07879 65.588721 
L 176.496999 64.929167 
L 196.38655 63.857823 
L 210.586607 63.16654 
L 217.903041 63.006172 
L 224.527159 63.064322 
L 231.53839 63.369164 
L 240.474651 64.035171 
L 252.048535 64.88005 
L 274.390739 66.205282 
L 283.12898 66.851962 
L 289.243858 67.068812 
L 294.091335 67.126305 
L 294.091335 67.126305 
" clip-path="url(#pd5e8ec5127)" style="fill: none; stroke: #3c8d8e; stroke-width: 1.5; stroke-linecap: round"/>
   </g>
   <g id="line2d_30">
    <path d="M -1 64.291176 
L 61.905834 64.073203 
L 119.685696 63.646158 
L 179.485414 63.145545 
L 197.165423 63.224229 
L 211.270843 63.498711 
L 224.785017 63.993272 
L 241.843098 64.888085 
L 256.673288 65.619908 
L 267.009957 65.900027 
L 289.084372 66.354948 
L 309.081419 67.07544 
L 316.098319 67.132155 
L 316.098319 67.132155 
" clip-path="url(#pd5e8ec5127)" style="fill: none; stroke: #37888d; stroke-width: 1.5; stroke-linecap: round"/>
   </g>
   <g id="line2d_31">
    <path d="M -1 66.826031 
L 332.802411 66.922188 
L 376.959538 67.139869 
L 376.959538 67.139869 
" clip-path="url(#pd5e8ec5127)" style="fill: none; stroke: #31828d; stroke-width: 1.5; stroke-linecap: round"/>
   </g>
   <g id="line2d_32">
    <path d="M -1 65.427417 
L 29.842802 65.083829 
L 59.801095 64.538625 
L 86.502014 63.815461 
L 136.104964 62.353527 
L 148.594445 62.267116 
L 158.200381 62.401245 
L 165.756935 62.701578 
L 172.577236 63.180984 
L 179.531585 63.902768 
L 189.139877 65.171723 
L 197.587991 66.213006 
L 203.577718 66.717139 
L 209.576172 66.993833 
L 215.542662 67.105093 
L 215.542662 67.105093 
" clip-path="url(#pd5e8ec5127)" style="fill: none; stroke: #2b7d8c; stroke-width: 1.5; stroke-linecap: round"/>
   </g>
   <g id="line2d_33">
    <path d="M -1 65.280127 
L 47.729156 65.097428 
L 101.81613 64.709877 
L 175.05166 64.116468 
L 194.725937 64.225662 
L 211.208415 64.529524 
L 223.602018 64.976045 
L 234.939111 65.624856 
L 254.485365 66.827273 
L 263.074143 67.063275 
L 269.751074 67.125382 
L 269.751074 67.125382 
" clip-path="url(#pd5e8ec5127)" style="fill: none; stroke: #24778b; stroke-width: 1.5; stroke-linecap: round"/>
   </g>
   <g id="line2d_34">
    <path d="M -1 66.557449 
L 191.04007 66.406906 
L 258.850756 66.418772 
L 284.836932 66.644053 
L 328.160439 67.132423 
L 330.891893 67.13688 
L 330.891893 67.13688 
" clip-path="url(#pd5e8ec5127)" style="fill: none; stroke: #21728b; stroke-width: 1.5; stroke-linecap: round"/>
   </g>
   <g id="line2d_35">
    <path d="M 46.484411 67.108281 
L 101.72355 66.967778 
L 122.78274 66.729316 
L 137.330122 66.353724 
L 147.973504 65.87144 
L 157.2112 65.250621 
L 167.538579 64.314491 
L 193.901112 61.721443 
L 201.5265 61.304512 
L 207.804849 61.188848 
L 212.451504 61.321182 
L 216.278955 61.638344 
L 219.9081 62.154784 
L 223.837807 62.956267 
L 228.904695 64.24922 
L 234.864927 65.732742 
L 238.445004 66.387558 
L 241.851002 66.789232 
L 245.800858 67.027057 
L 249.208084 67.107948 
L 249.208084 67.107948 
" clip-path="url(#pd5e8ec5127)" style="fill: none; stroke: #20718b; stroke-width: 1.5; stroke-linecap: round"/>
   </g>
   <g id="line2d_36">
    <path d="M 262.84415 66.727451 
L 263.027166 66.039829 
L 263.229956 64.299344 
L 263.472533 59.817916 
L 263.774578 49.169997 
L 264.653137 14.708138 
L 264.851283 13.482884 
L 264.930384 13.751934 
L 265.068597 15.291553 
L 265.28524 20.684761 
L 265.638307 36.4699 
L 266.203422 60.320001 
L 266.51327 65.339476 
L 266.783266 66.727451 
L 266.783266 66.727451 
" clip-path="url(#pd5e8ec5127)" style="fill: none; stroke: #1e6e8a; stroke-width: 1.5; stroke-linecap: round"/>
   </g>
   <g id="line2d_37">
    <path d="M -1 66.578808 
L 285.002726 66.683714 
L 353.994274 67.01055 
L 381.922681 67.139764 
L 381.922681 67.139764 
" clip-path="url(#pd5e8ec5127)" style="fill: none; stroke: #1e6d8a; stroke-width: 1.5; stroke-linecap: round"/>
   </g>
   <g id="line2d_38">
    <path d="M -1 66.957773 
L 215.648927 66.835607 
L 326.058165 66.742356 
L 354.105894 67.023953 
L 375.985717 67.138842 
L 376.453971 67.139276 
L 376.453971 67.139276 
" clip-path="url(#pd5e8ec5127)" style="fill: none; stroke: #1d6c8a; stroke-width: 1.5; stroke-linecap: round"/>
   </g>
   <g id="line2d_39">
    <path d="M -1 67.016506 
L 121.12409 66.876341 
L 167.880206 66.618592 
L 201.18811 66.207275 
L 242.648595 65.663533 
L 258.35202 65.711884 
L 269.191822 65.954224 
L 280.881086 66.459008 
L 293.78279 66.979123 
L 303.862453 67.122714 
L 305.874193 67.131318 
L 305.874193 67.131318 
" clip-path="url(#pd5e8ec5127)" style="fill: none; stroke: #1d6a8a; stroke-width: 1.5; stroke-linecap: round"/>
   </g>
   <g id="line2d_40">
    <path d="M -1 63.309898 
L 34.494758 62.890804 
L 63.115287 62.350394 
L 89.009429 61.654942 
L 147.764674 59.862111 
L 158.58287 59.889433 
L 166.175656 60.105401 
L 174.63815 60.582278 
L 182.187764 61.223104 
L 192.794161 62.368905 
L 204.128988 63.567527 
L 211.096561 64.094024 
L 219.983117 64.512073 
L 229.344209 64.974338 
L 236.29042 65.554163 
L 249.509596 66.757098 
L 255.790519 67.030574 
L 261.5544 67.119422 
L 261.5544 67.119422 
" clip-path="url(#pd5e8ec5127)" style="fill: none; stroke: #1c6889; stroke-width: 1.5; stroke-linecap: round"/>
   </g>
   <g id="line2d_41">
    <path d="M -1 65.581736 
L 44.895498 65.293596 
L 80.680304 64.871681 
L 111.83331 64.289021 
L 164.747105 63.197543 
L 178.498435 63.1994 
L 192.304752 63.435989 
L 205.739668 63.881153 
L 216.202886 64.439039 
L 225.304623 65.166037 
L 243.38452 66.738357 
L 250.186822 67.016828 
L 257.293692 67.12024 
L 257.293692 67.12024 
" clip-path="url(#pd5e8ec5127)" style="fill: none; stroke: #1c6488; stroke-width: 1.5; stroke-linecap: round"/>
   </g>
   <g id="line2d_42">
    <path d="M 127.548822 67.059776 
L 135.505482 66.845274 
L 140.348493 66.522621 
L 144.327804 66.049449 
L 147.567515 65.461469 
L 150.664017 64.685051 
L 153.629437 63.724406 
L 156.937555 62.417135 
L 162.695217 59.822586 
L 166.42105 58.274239 
L 169.187857 57.372044 
L 171.475433 56.839848 
L 173.690673 56.524307 
L 176.189589 56.410863 
L 178.26279 56.524307 
L 180.276402 56.839848 
L 182.233754 57.372044 
L 184.137906 58.127388 
L 185.991673 59.089115 
L 188.389446 60.605795 
L 194.318968 64.537216 
L 196.188967 65.461469 
L 198.010349 66.130174 
L 200.035551 66.622158 
L 202.246047 66.922251 
L 204.388929 67.059776 
L 204.388929 67.059776 
" clip-path="url(#pd5e8ec5127)" style="fill: none; stroke: #1d6388; stroke-width: 1.5; stroke-linecap: round"/>
   </g>
   <g id="line2d_43">
    <path d="M -1 65.831867 
L 52.766401 65.584046 
L 100.855339 65.136087 
L 146.963441 64.457534 
L 177.508057 63.8256 
L 203.891826 63.196777 
L 210.559475 63.288695 
L 216.647351 63.597512 
L 222.248265 64.094264 
L 229.544633 64.976881 
L 240.432788 66.297788 
L 246.126926 66.752735 
L 252.400173 67.018986 
L 259.072787 67.118982 
L 259.072787 67.118982 
" clip-path="url(#pd5e8ec5127)" style="fill: none; stroke: #1d6188; stroke-width: 1.5; stroke-linecap: round"/>
   </g>
   <g id="line2d_44">
    <path d="M -1 66.890612 
L 354.099593 67.001715 
L 394.274965 67.140568 
L 394.274965 67.140568 
" clip-path="url(#pd5e8ec5127)" style="fill: none; stroke: #1d6087; stroke-width: 1.5; stroke-linecap: round"/>
   </g>
   <g id="line2d_45">
    <path d="M -1 66.827025 
L 335.238474 66.93405 
L 371.820468 67.138286 
L 373.445566 67.139599 
L 373.445566 67.139599 
" clip-path="url(#pd5e8ec5127)" style="fill: none; stroke: #1e5d86; stroke-width: 1.5; stroke-linecap: round"/>
   </g>
   <g id="line2d_46">
    <path d="M -1 67.057892 
L 42.385174 66.890663 
L 63.487932 66.623269 
L 77.852746 66.236022 
L 88.184549 65.760172 
L 97.186727 65.138517 
L 105.162813 64.377802 
L 113.448287 63.355382 
L 123.806684 61.809493 
L 135.32376 60.099384 
L 141.572203 59.400715 
L 147.308724 59.00411 
L 152.610888 58.887477 
L 156.942379 59.00411 
L 161.0216 59.33491 
L 164.876327 59.896184 
L 168.529984 60.685204 
L 172.484832 61.809493 
L 179.347417 64.097778 
L 183.575373 65.361967 
L 186.783137 66.093187 
L 189.850441 66.577816 
L 193.504866 66.913947 
L 197.652539 67.078949 
L 197.652539 67.078949 
" clip-path="url(#pd5e8ec5127)" style="fill: none; stroke: #205784; stroke-width: 1.5; stroke-linecap: round"/>
   </g>
   <g id="line2d_47">
    <path d="M -1 63.576639 
L 23.069818 62.905649 
L 45.33068 62.051288 
L 75.782187 60.60249 
L 93.826277 59.835914 
L 105.51998 59.534904 
L 115.538246 59.488648 
L 123.264241 59.652183 
L 130.222246 60.01926 
L 135.681349 60.505986 
L 141.555236 61.266626 
L 146.97453 62.190447 
L 154.72463 63.767341 
L 162.899407 65.387281 
L 168.047325 66.168163 
L 172.842743 66.660382 
L 178.290341 66.968496 
L 182.900035 67.083513 
L 182.900035 67.083513 
" clip-path="url(#pd5e8ec5127)" style="fill: none; stroke: #27467c; stroke-width: 1.5; stroke-linecap: round"/>
   </g>
   <g id="line2d_48">
    <path d="M -1 64.907138 
L 130.403756 64.742939 
L 220.241333 64.599436 
L 243.5213 64.776063 
L 263.492506 65.135226 
L 291.715296 65.922646 
L 309.240524 66.29983 
L 325.332044 66.389739 
L 344.133584 66.510793 
L 360.823701 66.933144 
L 372.744218 67.115127 
L 379.221125 67.138257 
L 379.221125 67.138257 
" clip-path="url(#pd5e8ec5127)" style="fill: none; stroke: #28447b; stroke-width: 1.5; stroke-linecap: round"/>
   </g>
   <g id="line2d_49">
    <path d="M -1 66.543316 
L 141.972074 66.398669 
L 253.887133 66.26022 
L 275.471584 66.489882 
L 319.668023 67.132721 
L 321.21175 67.135633 
L 321.21175 67.135633 
" clip-path="url(#pd5e8ec5127)" style="fill: none; stroke: #294079; stroke-width: 1.5; stroke-linecap: round"/>
   </g>
   <g id="line2d_50">
    <path d="M -1 65.954587 
L 254.139895 66.01435 
L 300.954059 66.47796 
L 373.273321 67.13868 
L 373.273321 67.13868 
" clip-path="url(#pd5e8ec5127)" style="fill: none; stroke: #2c3172; stroke-width: 1.5; stroke-linecap: round"/>
   </g>
   <g id="patch_7">
    <path d="M 31.8 67.142857 
L 354.445714 67.142857 
" style="fill: none; stroke: #262626; stroke-width: 0.8; stroke-linejoin: miter; stroke-linecap: square"/>
   </g>
  </g>
  <g id="axes_3">
   <g id="patch_8">
    <path d="M 365.571429 405.2 
L 421.2 405.2 
L 421.2 78.411429 
L 365.571429 78.411429 
z
" style="fill: #ffffff"/>
   </g>
   <g id="matplotlib.axis_5">
    <g id="xtick_39"/>
    <g id="xtick_40"/>
   </g>
   <g id="matplotlib.axis_6">
    <g id="ytick_9"/>
    <g id="ytick_10"/>
    <g id="ytick_11"/>
    <g id="ytick_12"/>
    <g id="ytick_13"/>
    <g id="ytick_14"/>
   </g>
   <g id="line2d_51">
    <path d="M 365.650624 429.809045 
L 365.880043 425.314266 
L 366.225205 422.505029 
L 366.700017 420.257639 
L 367.428107 418.01025 
L 368.185209 416.324707 
L 369.154161 414.639165 
L 370.35394 412.953623 
L 371.789896 411.268081 
L 374.046273 409.020691 
L 377.273945 406.211454 
L 382.52715 401.716675 
L 384.196419 400.031133 
L 385.543347 398.345591 
L 386.221006 397.221896 
L 386.700776 396.098201 
L 386.970839 394.974507 
L 387.02593 393.850812 
L 386.867469 392.727117 
L 386.503334 391.603422 
L 385.947302 390.479728 
L 384.795804 388.794185 
L 383.335222 387.108643 
L 381.064225 384.861254 
L 373.965795 378.119085 
L 372.002542 375.871695 
L 370.37134 373.624306 
L 369.089429 371.376916 
L 368.352491 369.691374 
L 367.649896 367.443985 
L 367.235988 365.196595 
L 367.06987 362.949206 
L 367.138298 360.139969 
L 367.483435 356.768884 
L 368.243736 350.026716 
L 368.319896 347.217479 
L 368.184615 344.408242 
L 367.782767 341.037157 
L 366.010622 328.676515 
L 365.736287 324.181736 
L 365.601884 318.001414 
L 365.601884 318.001414 
" clip-path="url(#pf49e527bbb)" style="fill: none; stroke: #88bf91; stroke-width: 1.5; stroke-linecap: round"/>
   </g>
   <g id="line2d_52">
    <path d="M 366.000353 433 
L 366.243034 374.195505 
L 366.224929 320.48633 
L 365.979379 266.777156 
L 365.631728 191.584312 
L 365.576778 137.875137 
L 365.576778 137.875137 
" clip-path="url(#pf49e527bbb)" style="fill: none; stroke: #68af90; stroke-width: 1.5; stroke-linecap: round"/>
   </g>
   <g id="line2d_53">
    <path d="M 365.623422 416.432196 
L 365.809178 413.208077 
L 366.143197 410.975995 
L 366.680371 408.991922 
L 367.383929 407.255858 
L 368.455524 405.271785 
L 370.238087 402.543684 
L 372.289167 399.319565 
L 373.266131 397.335492 
L 373.880106 395.599428 
L 374.272732 393.863364 
L 374.459032 392.1273 
L 374.442456 390.391236 
L 374.206796 388.655172 
L 373.725467 386.919108 
L 372.983556 385.183044 
L 371.845822 383.19897 
L 369.642356 379.974851 
L 368.057834 377.49476 
L 367.070524 375.510687 
L 366.45498 373.774623 
L 366.007648 371.79055 
L 365.744103 369.558467 
L 365.62357 367.078376 
L 365.62357 367.078376 
" clip-path="url(#pf49e527bbb)" style="fill: none; stroke: #5ca890; stroke-width: 1.5; stroke-linecap: round"/>
   </g>
   <g id="line2d_54">
    <path d="M 365.958561 433 
L 366.142668 361.830532 
L 366.092994 292.660081 
L 365.775227 208.11842 
L 365.599541 133.824232 
L 365.575914 87.710598 
L 365.575914 87.710598 
" clip-path="url(#pf49e527bbb)" style="fill: none; stroke: #5ba690; stroke-width: 1.5; stroke-linecap: round"/>
   </g>
   <g id="line2d_55">
    <path d="M 365.924308 433 
L 366.123004 353.844925 
L 366.068955 279.555326 
L 365.715238 178.733726 
L 365.585489 99.137726 
L 365.57576 69.952526 
L 365.57576 69.952526 
" clip-path="url(#pf49e527bbb)" style="fill: none; stroke: #57a490; stroke-width: 1.5; stroke-linecap: round"/>
   </g>
   <g id="line2d_56">
    <path d="M 365.619158 411.061106 
L 365.821111 407.208861 
L 366.153201 404.801207 
L 366.673819 402.634319 
L 367.436549 400.46743 
L 368.630331 397.819011 
L 370.487975 393.726 
L 371.121152 391.799877 
L 371.529003 389.873754 
L 371.718293 387.947631 
L 371.705901 386.021508 
L 371.490367 384.095385 
L 371.054095 382.169262 
L 370.394213 380.243139 
L 369.211598 377.59472 
L 367.246899 373.260944 
L 366.537363 371.094055 
L 366.068334 368.927167 
L 365.778632 366.519513 
L 365.619158 363.148798 
L 365.619158 363.148798 
" clip-path="url(#pf49e527bbb)" style="fill: none; stroke: #509e90; stroke-width: 1.5; stroke-linecap: round"/>
   </g>
   <g id="line2d_57">
    <path d="M 366.335902 433 
L 366.703877 399.654646 
L 366.743347 375.839118 
L 366.528192 338.131198 
L 365.613022 181.345637 
L 365.577749 147.606972 
L 365.577749 147.606972 
" clip-path="url(#pf49e527bbb)" style="fill: none; stroke: #47978f; stroke-width: 1.5; stroke-linecap: round"/>
   </g>
   <g id="line2d_58">
    <path d="M 366.298118 433 
L 366.856346 424.446022 
L 368.870291 397.251632 
L 368.993698 391.208434 
L 368.893815 384.158036 
L 368.526075 376.100439 
L 367.347446 353.942047 
L 367.087259 342.862851 
L 366.61738 319.69726 
L 365.737093 287.466872 
L 365.599535 270.344478 
L 365.584566 264.30128 
L 365.584566 264.30128 
" clip-path="url(#pf49e527bbb)" style="fill: none; stroke: #43948f; stroke-width: 1.5; stroke-linecap: round"/>
   </g>
   <g id="line2d_59">
    <path d="M 366.438212 433 
L 367.106408 404.956692 
L 367.210784 390.681106 
L 367.087518 373.550402 
L 365.712923 256.490595 
L 365.588998 225.084305 
L 365.580061 216.518953 
L 365.580061 216.518953 
" clip-path="url(#pf49e527bbb)" style="fill: none; stroke: #3f8f8e; stroke-width: 1.5; stroke-linecap: round"/>
   </g>
   <g id="line2d_60">
    <path d="M 366.83227 433 
L 368.317082 405.610847 
L 368.468914 396.992874 
L 368.375245 388.3749 
L 368.025963 378.525787 
L 366.920867 351.440726 
L 366.729237 339.129335 
L 366.317204 302.195161 
L 365.714407 267.723266 
L 365.591438 244.331622 
L 365.582062 238.175927 
L 365.582062 238.175927 
" clip-path="url(#pf49e527bbb)" style="fill: none; stroke: #3c8d8e; stroke-width: 1.5; stroke-linecap: round"/>
   </g>
   <g id="line2d_61">
    <path d="M 366.732025 433 
L 367.559598 422.446017 
L 369.165676 403.101141 
L 369.513037 395.846813 
L 369.609201 388.592484 
L 369.451616 381.338156 
L 369.027495 372.874773 
L 367.944839 353.529897 
L 367.724202 345.066514 
L 367.685209 334.185022 
L 367.65784 314.840146 
L 367.36865 303.958653 
L 366.625686 287.031887 
L 366.023355 271.314176 
L 365.740004 258.014574 
L 365.600892 239.878753 
L 365.588546 235.042534 
L 365.588546 235.042534 
" clip-path="url(#pf49e527bbb)" style="fill: none; stroke: #37888d; stroke-width: 1.5; stroke-linecap: round"/>
   </g>
   <g id="line2d_62">
    <path d="M 365.877465 433 
L 366.28957 353.591489 
L 366.266519 305.11579 
L 366.019084 256.640092 
L 365.640777 185.946364 
L 365.577118 133.431024 
L 365.577118 133.431024 
" clip-path="url(#pf49e527bbb)" style="fill: none; stroke: #31828d; stroke-width: 1.5; stroke-linecap: round"/>
   </g>
   <g id="line2d_63">
    <path d="M 365.628402 415.590299 
L 365.818763 412.766494 
L 366.164573 410.749491 
L 366.648451 409.135888 
L 367.358253 407.522285 
L 368.414533 405.706982 
L 371.943176 400.059373 
L 372.53204 398.44577 
L 372.853122 396.832167 
L 372.927238 395.218564 
L 372.762872 393.604962 
L 372.410459 392.193059 
L 371.850528 390.781157 
L 370.972611 389.167554 
L 369.361355 386.74715 
L 367.682993 384.125045 
L 366.804062 382.309742 
L 366.265878 380.696139 
L 365.897888 378.880836 
L 365.682118 376.662132 
L 365.628402 375.45193 
L 365.628402 375.45193 
" clip-path="url(#pf49e527bbb)" style="fill: none; stroke: #2b7d8c; stroke-width: 1.5; stroke-linecap: round"/>
   </g>
   <g id="line2d_64">
    <path d="M 366.335116 433 
L 367.06857 398.34931 
L 367.136737 381.946174 
L 366.962298 361.069455 
L 365.652047 240.282723 
L 365.579857 208.967645 
L 365.579857 208.967645 
" clip-path="url(#pf49e527bbb)" style="fill: none; stroke: #24778b; stroke-width: 1.5; stroke-linecap: round"/>
   </g>
   <g id="line2d_65">
    <path d="M 365.583804 427.317606 
L 365.734294 402.24549 
L 366.055014 386.459342 
L 367.133481 343.743884 
L 367.153084 328.886333 
L 366.955435 314.028783 
L 366.485189 297.314038 
L 365.839169 274.099115 
L 365.636166 257.384371 
L 365.583804 242.52682 
L 365.583804 242.52682 
" clip-path="url(#pf49e527bbb)" style="fill: none; stroke: #21728b; stroke-width: 1.5; stroke-linecap: round"/>
   </g>
   <g id="line2d_66">
    <path d="M 365.864352 399.080196 
L 366.254526 398.776693 
L 367.031283 398.47319 
L 368.431858 398.169687 
L 371.124639 397.822826 
L 376.470816 397.38925 
L 389.239284 396.652171 
L 401.4226 395.871735 
L 415.405091 394.657722 
L 418.271305 394.267504 
L 418.547022 394.094074 
L 418.214818 393.964001 
L 416.526137 393.747213 
L 411.784618 393.44371 
L 398.946695 392.923419 
L 376.712749 392.012909 
L 370.296729 391.535976 
L 367.588575 391.145758 
L 366.32241 390.755539 
L 365.887879 390.452036 
L 365.887879 390.452036 
" clip-path="url(#pf49e527bbb)" style="fill: none; stroke: #20718b; stroke-width: 1.5; stroke-linecap: round"/>
   </g>
   <g id="line2d_67">
    <path d="M 365.588821 369.625728 
L 365.738412 354.429071 
L 366.056085 344.518207 
L 366.643979 333.946619 
L 367.543559 318.089237 
L 367.777152 309.499822 
L 367.801144 300.249683 
L 367.616857 291.660267 
L 367.182236 282.410128 
L 365.87811 258.624055 
L 365.662412 248.713191 
L 365.588821 238.141603 
L 365.588821 238.141603 
" clip-path="url(#pf49e527bbb)" style="fill: none; stroke: #1e6e8a; stroke-width: 1.5; stroke-linecap: round"/>
   </g>
   <g id="line2d_68">
    <path d="M 366.020244 433 
L 366.829412 364.961194 
L 366.830357 335.554994 
L 366.598353 297.499911 
L 366.104027 255.985275 
L 365.716444 217.930193 
L 365.590986 181.604886 
L 365.578851 167.766674 
L 365.578851 167.766674 
" clip-path="url(#pf49e527bbb)" style="fill: none; stroke: #1e6d8a; stroke-width: 1.5; stroke-linecap: round"/>
   </g>
   <g id="line2d_69">
    <path d="M 365.584489 396.231481 
L 365.730628 373.355547 
L 366.055496 358.398205 
L 367.234723 315.285868 
L 367.227831 301.20837 
L 367.010885 288.010716 
L 366.503987 272.173531 
L 365.873093 251.937128 
L 365.653285 236.979787 
L 365.584489 221.142602 
L 365.584489 221.142602 
" clip-path="url(#pf49e527bbb)" style="fill: none; stroke: #1d6c8a; stroke-width: 1.5; stroke-linecap: round"/>
   </g>
   <g id="line2d_70">
    <path d="M 365.720449 330.394418 
L 366.009276 329.623285 
L 366.505395 329.006378 
L 367.251348 328.466584 
L 368.388525 327.926791 
L 370.245106 327.309884 
L 373.349696 326.53875 
L 382.237587 324.456689 
L 383.77784 323.839782 
L 384.54919 323.299988 
L 384.811535 322.837308 
L 384.763328 322.451741 
L 384.470547 322.066175 
L 383.77784 321.603494 
L 382.469071 321.063701 
L 380.327508 320.446794 
L 375.847959 319.44432 
L 370.519406 318.210506 
L 368.388525 317.516486 
L 367.122878 316.899579 
L 366.350995 316.282672 
L 365.92851 315.665765 
L 365.720449 315.048858 
L 365.720449 315.048858 
" clip-path="url(#pf49e527bbb)" style="fill: none; stroke: #1d6a8a; stroke-width: 1.5; stroke-linecap: round"/>
   </g>
   <g id="line2d_71">
    <path d="M 365.637628 422.761268 
L 365.851826 418.629146 
L 366.185887 415.999614 
L 366.680374 413.74573 
L 367.428734 411.491845 
L 368.461951 409.237961 
L 369.758796 406.984076 
L 372.485328 402.851954 
L 374.076648 400.222422 
L 374.96679 398.344185 
L 375.577972 396.465948 
L 375.849468 394.963359 
L 375.933569 393.460769 
L 375.805798 391.582532 
L 375.386991 389.328647 
L 374.558261 386.323468 
L 371.795655 376.932282 
L 370.084348 370.921923 
L 366.706993 360.028148 
L 366.163374 357.022968 
L 365.84177 354.017789 
L 365.645159 349.885667 
L 365.60891 348.00743 
L 365.60891 348.00743 
" clip-path="url(#pf49e527bbb)" style="fill: none; stroke: #1c6889; stroke-width: 1.5; stroke-linecap: round"/>
   </g>
   <g id="line2d_72">
    <path d="M 366.421836 433 
L 367.395137 402.074102 
L 367.471077 390.99362 
L 367.329728 377.45081 
L 366.618469 329.43539 
L 366.140232 302.349769 
L 365.73554 276.495312 
L 365.596903 251.87202 
L 365.581439 242.022703 
L 365.581439 242.022703 
" clip-path="url(#pf49e527bbb)" style="fill: none; stroke: #1c6488; stroke-width: 1.5; stroke-linecap: round"/>
   </g>
   <g id="line2d_73">
    <path d="M 365.697133 401.504018 
L 365.940768 400.589848 
L 366.359261 399.858512 
L 366.988498 399.218593 
L 367.947746 398.578674 
L 369.513836 397.847338 
L 371.844389 397.024585 
L 379.629904 394.464909 
L 380.799726 393.82499 
L 381.513483 393.185071 
L 381.78487 392.636569 
L 381.78487 392.179484 
L 381.57982 391.722399 
L 381.049278 391.173897 
L 380.187761 390.625395 
L 378.759158 389.985476 
L 376.061814 389.071306 
L 369.513836 386.968715 
L 367.787996 386.145962 
L 366.778317 385.414626 
L 366.170908 384.68329 
L 365.815652 383.860537 
L 365.697133 383.312035 
L 365.697133 383.312035 
" clip-path="url(#pf49e527bbb)" style="fill: none; stroke: #1d6388; stroke-width: 1.5; stroke-linecap: round"/>
   </g>
   <g id="line2d_74">
    <path d="M 365.959485 433 
L 366.41581 421.981998 
L 367.955515 389.949479 
L 368.069321 380.161765 
L 367.965252 367.704674 
L 367.621174 353.467999 
L 367.083907 340.121117 
L 365.923649 313.427351 
L 365.680065 300.97026 
L 365.585854 284.954001 
L 365.585854 284.954001 
" clip-path="url(#pf49e527bbb)" style="fill: none; stroke: #1d6188; stroke-width: 1.5; stroke-linecap: round"/>
   </g>
   <g id="line2d_75">
    <path d="M 365.963667 433 
L 366.134666 361.014186 
L 366.077647 290.607929 
L 365.726126 194.125281 
L 365.588819 118.503746 
L 365.575835 84.604437 
L 365.575835 84.604437 
" clip-path="url(#pf49e527bbb)" style="fill: none; stroke: #1d6087; stroke-width: 1.5; stroke-linecap: round"/>
   </g>
   <g id="line2d_76">
    <path d="M 365.939942 433 
L 366.194053 363.932823 
L 366.172162 303.681041 
L 365.913392 241.111883 
L 365.623055 164.638467 
L 365.576387 109.021437 
L 365.576387 109.021437 
" clip-path="url(#pf49e527bbb)" style="fill: none; stroke: #1e5d86; stroke-width: 1.5; stroke-linecap: round"/>
   </g>
   <g id="line2d_77">
    <path d="M 365.930122 433 
L 366.454286 414.002929 
L 366.961691 393.819827 
L 367.111281 378.442225 
L 367.043636 362.103523 
L 366.755375 346.725921 
L 365.686224 301.554217 
L 365.583385 279.448914 
L 365.583385 279.448914 
" clip-path="url(#pf49e527bbb)" style="fill: none; stroke: #205784; stroke-width: 1.5; stroke-linecap: round"/>
   </g>
   <g id="line2d_78">
    <path d="M 365.683286 408.349695 
L 365.934567 407.21963 
L 366.33711 406.397764 
L 366.93487 405.678632 
L 367.835192 404.9595 
L 369.285469 404.137634 
L 371.409935 403.213036 
L 377.899446 400.541973 
L 378.998782 399.822841 
L 379.69069 399.103708 
L 379.977213 398.487309 
L 379.998939 397.87091 
L 379.757446 397.254511 
L 379.237487 396.638112 
L 378.420599 396.021713 
L 377.093842 395.30258 
L 374.64081 394.275249 
L 369.285469 392.117852 
L 367.835192 391.295986 
L 366.832406 390.474121 
L 366.21238 389.652255 
L 365.868444 388.83039 
L 365.683286 387.905791 
L 365.683286 387.905791 
" clip-path="url(#pf49e527bbb)" style="fill: none; stroke: #27467c; stroke-width: 1.5; stroke-linecap: round"/>
   </g>
   <g id="line2d_79">
    <path d="M 366.614723 433 
L 367.553452 399.678689 
L 368.3219 369.188205 
L 368.659146 347.013307 
L 368.752786 327.610272 
L 368.637445 308.207237 
L 368.309426 288.804202 
L 367.646731 263.857443 
L 366.590812 225.051372 
L 366.249105 202.876475 
L 366.127552 177.929716 
L 365.965569 97.545713 
L 365.618465 28.249159 
L 365.58209 -1 
L 365.58209 -1 
" clip-path="url(#pf49e527bbb)" style="fill: none; stroke: #28447b; stroke-width: 1.5; stroke-linecap: round"/>
   </g>
   <g id="line2d_80">
    <path d="M 365.692236 433 
L 365.975326 410.899303 
L 366.810483 358.219398 
L 366.816341 337.147436 
L 366.601256 316.075475 
L 365.618242 248.17693 
L 365.581245 230.616962 
L 365.581245 230.616962 
" clip-path="url(#pf49e527bbb)" style="fill: none; stroke: #294079; stroke-width: 1.5; stroke-linecap: round"/>
   </g>
   <g id="line2d_81">
    <path d="M 366.160092 433 
L 366.91598 395.527464 
L 367.542279 360.928849 
L 367.682517 341.707396 
L 367.605905 322.485943 
L 367.246064 295.575909 
L 365.911351 203.312935 
L 365.661949 172.558611 
L 365.579079 134.115705 
L 365.579079 134.115705 
" clip-path="url(#pf49e527bbb)" style="fill: none; stroke: #2c3172; stroke-width: 1.5; stroke-linecap: round"/>
   </g>
   <g id="patch_9">
    <path d="M 365.571429 405.2 
L 365.571429 78.411429 
" style="fill: none; stroke: #262626; stroke-width: 0.8; stroke-linejoin: miter; stroke-linecap: square"/>
   </g>
  </g>
  <g id="axes_4">
   <g id="matplotlib.axis_7">
    <g id="xtick_41">
     <g id="line2d_82">
      <defs>
       <path id="m49ae90328a" d="M 0 0 
L 0 -3.5 
" style="stroke: #262626; stroke-width: 0.8"/>
      </defs>
      <g>
       <use xlink:href="#m49ae90328a" x="31.8" y="78.411429" style="fill: #262626; stroke: #262626; stroke-width: 0.8"/>
      </g>
     </g>
     <g id="text_15">
      <!-- 0.0 -->
      <g style="fill: #262626" transform="translate(24.85 69.423929)scale(0.1 -0.1)">
       <use xlink:href="#ArialMT-30"/>
       <use xlink:href="#ArialMT-2e" x="55.615234"/>
       <use xlink:href="#ArialMT-30" x="83.398438"/>
      </g>
     </g>
    </g>
    <g id="xtick_42">
     <g id="line2d_83">
      <g>
       <use xlink:href="#m49ae90328a" x="96.329143" y="78.411429" style="fill: #262626; stroke: #262626; stroke-width: 0.8"/>
      </g>
     </g>
     <g id="text_16">
      <!-- 0.2 -->
      <g style="fill: #262626" transform="translate(89.379143 69.423929)scale(0.1 -0.1)">
       <use xlink:href="#ArialMT-30"/>
       <use xlink:href="#ArialMT-2e" x="55.615234"/>
       <use xlink:href="#ArialMT-32" x="83.398438"/>
      </g>
     </g>
    </g>
    <g id="xtick_43">
     <g id="line2d_84">
      <g>
       <use xlink:href="#m49ae90328a" x="160.858286" y="78.411429" style="fill: #262626; stroke: #262626; stroke-width: 0.8"/>
      </g>
     </g>
     <g id="text_17">
      <!-- 0.4 -->
      <g style="fill: #262626" transform="translate(153.908286 69.423929)scale(0.1 -0.1)">
       <use xlink:href="#ArialMT-30"/>
       <use xlink:href="#ArialMT-2e" x="55.615234"/>
       <use xlink:href="#ArialMT-34" x="83.398438"/>
      </g>
     </g>
    </g>
    <g id="xtick_44">
     <g id="line2d_85">
      <g>
       <use xlink:href="#m49ae90328a" x="225.387429" y="78.411429" style="fill: #262626; stroke: #262626; stroke-width: 0.8"/>
      </g>
     </g>
     <g id="text_18">
      <!-- 0.6 -->
      <g style="fill: #262626" transform="translate(218.437429 69.423929)scale(0.1 -0.1)">
       <use xlink:href="#ArialMT-30"/>
       <use xlink:href="#ArialMT-2e" x="55.615234"/>
       <use xlink:href="#ArialMT-36" x="83.398438"/>
      </g>
     </g>
    </g>
    <g id="xtick_45">
     <g id="line2d_86">
      <g>
       <use xlink:href="#m49ae90328a" x="289.916571" y="78.411429" style="fill: #262626; stroke: #262626; stroke-width: 0.8"/>
      </g>
     </g>
     <g id="text_19">
      <!-- 0.8 -->
      <g style="fill: #262626" transform="translate(282.966571 69.423929)scale(0.1 -0.1)">
       <use xlink:href="#ArialMT-30"/>
       <use xlink:href="#ArialMT-2e" x="55.615234"/>
       <use xlink:href="#ArialMT-38" x="83.398438"/>
      </g>
     </g>
    </g>
    <g id="xtick_46">
     <g id="line2d_87">
      <g>
       <use xlink:href="#m49ae90328a" x="354.445714" y="78.411429" style="fill: #262626; stroke: #262626; stroke-width: 0.8"/>
      </g>
     </g>
     <g id="text_20">
      <!-- 1.0 -->
      <g style="fill: #262626" transform="translate(347.495714 69.423929)scale(0.1 -0.1)">
       <use xlink:href="#ArialMT-31"/>
       <use xlink:href="#ArialMT-2e" x="55.615234"/>
       <use xlink:href="#ArialMT-30" x="83.398438"/>
      </g>
     </g>
    </g>
   </g>
   <g id="patch_10">
    <path d="M 31.8 405.2 
L 31.8 78.411429 
" style="fill: none; stroke: #262626; stroke-width: 0.8; stroke-linejoin: miter; stroke-linecap: square"/>
   </g>
   <g id="patch_11">
    <path d="M 354.445714 405.2 
L 354.445714 78.411429 
" style="fill: none; stroke: #262626; stroke-width: 0.8; stroke-linejoin: miter; stroke-linecap: square"/>
   </g>
   <g id="patch_12">
    <path d="M 31.8 405.2 
L 354.445714 405.2 
" style="fill: none; stroke: #262626; stroke-width: 0.8; stroke-linejoin: miter; stroke-linecap: square"/>
   </g>
   <g id="patch_13">
    <path d="M 31.8 78.411429 
L 354.445714 78.411429 
" style="fill: none; stroke: #262626; stroke-width: 0.8; stroke-linejoin: miter; stroke-linecap: square"/>
   </g>
  </g>
 </g>
 <defs>
  <clipPath id="pa5a8e56ee5">
   <rect x="31.8" y="78.411429" width="322.645714" height="326.788571"/>
  </clipPath>
  <clipPath id="pd5e8ec5127">
   <rect x="31.8" y="10.8" width="322.645714" height="56.342857"/>
  </clipPath>
  <clipPath id="pf49e527bbb">
   <rect x="365.571429" y="78.411429" width="55.628571" height="326.788571"/>
  </clipPath>
 </defs>
</svg>
